<svg width="50" height="50" viewBox="0 0 50 50" fill="none" xmlns="http://www.w3.org/2000/svg">
<path d="M6.25 10.4167C6.25 8.11562 8.11562 6.25 10.4167 6.25H39.5833C41.8844 6.25 43.75 8.11562 43.75 10.4167V39.5833C43.75 41.8844 41.8844 43.75 39.5833 43.75H10.4167C8.11562 43.75 6.25 41.8844 6.25 39.5833V10.4167Z" fill="#64DD17"/>
<path d="M17.7698 19.9729H16.6813V29.8094H17.5761C18.5729 29.8094 19.275 29.5469 19.6813 29.0208C20.0875 28.4948 20.3021 27.5885 20.3219 26.3V23.726C20.3219 22.3427 20.1281 21.3781 19.7417 20.8323C19.3552 20.2864 18.699 20 17.7698 19.9729Z" fill="#0C1902"/>
<path d="M9.375 9.375V40.625H40.625V9.375H9.375ZM23.3135 26.0458C23.3135 27.9917 22.8 29.5198 21.7729 30.6281C20.7458 31.7365 19.3292 32.2917 17.525 32.2917H13.6896V17.4802H17.6062C19.3354 17.4802 20.7135 18.0292 21.7417 19.1281C22.7698 20.2271 23.2927 21.7323 23.3135 23.6448V26.0458ZM34.7979 32.2917H32.4073L30.851 25.924L29.2948 32.2917H26.8937L24.6146 21.2854H27.3812L28.3583 27.4708L29.8229 21.2854H31.8677L33.3333 27.4594L34.3198 21.2844H37.076L34.7979 32.2917Z" fill="#0C1902"/>
</svg>
