<svg width="50" height="50" viewBox="0 0 50 50" fill="none" xmlns="http://www.w3.org/2000/svg">
<path d="M37.5 34.0625L36.4583 40.625C36.4583 42.9166 31.1458 44.7916 25 44.7916C18.8541 44.7916 13.5416 42.9166 13.5416 40.625L12.5 34.0625C12.3958 33.6458 12.8125 33.2291 13.3333 33.4375C16.4583 34.7916 20.8333 35.4166 25 35.4166C29.1666 35.4166 33.5416 34.7916 36.6666 33.4375C37.0833 33.2291 37.6041 33.6458 37.5 34.0625ZM42.7083 10.4166C42.7083 10.625 42.7083 10.7291 42.6041 10.9375L39.5833 28.125C39.5833 31.0416 33.125 33.3333 25.1041 33.3333C17.0833 33.3333 10.4166 31.0416 10.4166 28.125L7.39579 10.9375C7.29163 10.7291 7.29163 10.625 7.29163 10.4166C7.29163 7.49998 15.2083 5.20831 25 5.20831C34.7916 5.20831 42.7083 7.49998 42.7083 10.4166ZM30.2083 23.9583C30.2083 21.0416 27.9166 18.75 25 18.75C22.0833 18.75 19.7916 21.0416 19.7916 23.9583C19.7916 26.875 22.0833 29.1666 25 29.1666C27.9166 29.1666 30.2083 26.875 30.2083 23.9583ZM37.2916 10.4166C37.2916 8.64581 31.7708 7.29165 25 7.29165C18.2291 7.29165 12.7083 8.64581 12.7083 10.4166C12.7083 12.1875 18.2291 13.5416 25 13.5416C31.7708 13.5416 37.2916 12.1875 37.2916 10.4166ZM25 26.0416C26.1458 26.0416 27.0833 25.1041 27.0833 23.9583C27.0833 22.8125 26.1458 21.875 25 21.875C23.8541 21.875 22.9166 22.8125 22.9166 23.9583C22.9166 25.1041 23.8541 26.0416 25 26.0416Z" fill="#2196F3"/>
</svg>
