<svg width="50" height="50" viewBox="0 0 50 50" fill="none" xmlns="http://www.w3.org/2000/svg">
<g clip-path="url(#clip0)">
<path d="M1.56976e-08 43.5532C-5.90669e-05 44.3999 0.166664 45.2383 0.490648 46.0205C0.814632 46.8028 1.28953 47.5135 1.88823 48.1122C2.48692 48.7109 3.19769 49.1858 3.97993 49.5098C4.76217 49.8338 5.60058 50.0005 6.44726 50.0005H43.5527C44.3994 50.0005 45.2378 49.8338 46.0201 49.5098C46.8023 49.1858 47.5131 48.7109 48.1118 48.1122C48.7105 47.5135 49.1854 46.8028 49.5094 46.0205C49.8333 45.2383 50.0001 44.3999 50 43.5532V6.44726C50.0001 5.60062 49.8334 4.76225 49.5094 3.98003C49.1854 3.19782 48.7106 2.48708 48.1119 1.88839C47.5133 1.2897 46.8026 0.814788 46.0204 0.490777C45.2382 0.166767 44.3998 1.36364e-08 43.5532 1.56976e-08H6.44726C5.60058 -5.90669e-05 4.76217 0.166664 3.97993 0.490648C3.19769 0.814632 2.48692 1.28953 1.88823 1.88823C1.28953 2.48692 0.814632 3.19769 0.490648 3.97993C0.166664 4.76217 -5.90669e-05 5.60058 1.56976e-08 6.44726L1.56976e-08 43.5527V43.5532Z" fill="#563D7C"/>
<path d="M20.734 22.1169V15.0367H26.9667C27.5423 15.0351 28.117 15.0848 28.6838 15.1852C29.1997 15.2711 29.6955 15.4507 30.1467 15.7151C30.5734 15.9725 30.9244 16.3381 31.1643 16.7749C31.4382 17.3121 31.5696 17.9106 31.5457 18.5132C31.5457 19.7853 31.1641 20.7041 30.4009 21.2694C29.5445 21.8629 28.5179 22.1606 27.4768 22.1174L20.734 22.1169ZM14.0771 9.86343V40.1384H28.7477C30.0856 40.1409 31.4182 39.9698 32.7122 39.6296C33.9417 39.3164 35.105 38.7851 36.1468 38.061C37.1514 37.3529 37.9726 36.4154 38.5423 35.3263C39.1617 34.0986 39.4676 32.7365 39.4325 31.3618C39.4824 29.6405 39.0013 27.9455 38.0546 26.507C37.0427 25.0997 35.5618 24.0998 33.8782 23.6873C35.1076 23.1423 36.169 22.2787 36.9525 21.1857C37.6788 20.0489 38.0412 18.7177 37.9912 17.3696C38.0297 16.1449 37.7906 14.9273 37.2917 13.8082C36.8507 12.8769 36.1703 12.0794 35.32 11.4973C34.3937 10.8853 33.3567 10.4604 32.2673 10.2467C30.9699 9.98138 29.6481 9.85351 28.3239 9.86523L14.0771 9.86343ZM20.7349 34.9651V26.6537H27.9843C29.2215 26.5927 30.444 26.9431 31.4612 27.6501C32.3375 28.3144 32.7756 29.424 32.7756 30.979C32.8006 31.6524 32.6617 32.3217 32.3708 32.9295C32.1205 33.4183 31.7487 33.8344 31.2911 34.1378C30.8123 34.4455 30.2804 34.6612 29.7225 34.7739C29.1091 34.903 28.4838 34.9669 27.857 34.9647H20.734L20.7349 34.9651Z" fill="white"/>
</g>
<defs>
<clipPath id="clip0">
<rect width="50" height="50" fill="white"/>
</clipPath>
</defs>
</svg>
