<svg width="50" height="50" viewBox="0 0 50 50" fill="none" xmlns="http://www.w3.org/2000/svg">
<path d="M48.8895 22.956L38.7221 5.27318C38.3397 4.59511 37.7869 4.02868 37.1183 3.62997C36.4497 3.23126 35.6886 3.0141 34.9103 3H14.5715C13.7934 3.01525 13.0328 3.23288 12.3644 3.63148C11.696 4.03007 11.1429 4.59588 10.7597 5.27318L0.588367 22.898C0.202829 23.5713 0 24.3336 0 25.1094C0 25.8852 0.202829 26.6475 0.588367 27.3207L10.7558 45.104C11.1347 45.7915 11.6847 46.3694 12.3525 46.7819C13.0203 47.1944 13.7833 47.4274 14.5676 47.4584H34.9064C35.6909 47.4322 36.4552 47.2025 37.1242 46.7918C37.7931 46.3811 38.3438 45.8034 38.7221 45.1156L48.8895 27.4328C49.2769 26.7504 49.4805 25.9791 49.4805 25.1944C49.4805 24.4097 49.2769 23.6385 48.8895 22.956V22.956Z" fill="#4285F4"/>
<path d="M34.9527 18.5566H34.137L31.8832 16.2911L14.9387 20.6017L17.1307 22.4225L14.9387 24.4676L17.0109 26.2885L14.9271 28.3335L17.2467 30.1544L14.9271 32.1995L30.1551 47.47H34.9063C35.6909 47.4438 36.4551 47.2141 37.1241 46.8034C37.7931 46.3927 38.3437 45.815 38.722 45.1272L46.9333 30.8503H46.9062L34.9527 18.5566Z" fill="#4285F4"/>
<path d="M30.6384 16.295L18.074 18.3555L18.6655 19.4457L15.5728 21.3787L16.663 23.2498H14.3434V32.3L30.1551 47.47H34.9064C35.6909 47.4438 36.4552 47.2141 37.1241 46.8034C37.7931 46.3927 38.3437 45.815 38.7221 45.1272L46.3418 31.8825L30.6384 16.295Z" fill="#407ADD"/>
<path d="M31.4115 18.3517H18.074L18.8472 16.295H30.6384L31.4115 18.3517ZM33.9128 21.3903H15.5728L16.3459 19.4457H33.1396L33.9128 21.3903ZM28.8909 23.2614L28.2067 24.5411H21.2789L20.5946 23.2614H14.3434V32.3H35.1422V23.2614H28.8909Z" fill="white"/>
</svg>
