<svg width="50" height="50" viewBox="0 0 50 50" fill="none" xmlns="http://www.w3.org/2000/svg">
<g clip-path="url(#clip0)">
<path d="M49.4023 22.7031L39.1289 4.83594C38.7425 4.1508 38.1839 3.57846 37.5084 3.1756C36.8328 2.77273 36.0638 2.55331 35.2773 2.53906H14.7265C13.94 2.55292 13.1708 2.77218 12.4952 3.17509C11.8196 3.57799 11.261 4.15054 10.875 4.83594L0.597635 22.6562C0.206944 23.3361 0.00134277 24.1065 0.00134277 24.8906C0.00134277 25.6747 0.206944 26.4452 0.597635 27.125L10.8711 45.0938C11.2533 45.7889 11.8089 46.3732 12.4838 46.7901C13.1587 47.2069 13.93 47.4421 14.7226 47.4727H35.2734C36.066 47.4455 36.8379 47.213 37.5137 46.7981C38.1895 46.3832 38.746 45.7999 39.1289 45.1055L49.4023 27.2383C49.7958 26.5473 50.0028 25.7659 50.0028 24.9707C50.0028 24.1755 49.7958 23.3941 49.4023 22.7031V22.7031Z" fill="#4285F4"/>
<path opacity="0.07" d="M39.5585 24.2188L39.289 24.1367L25.6562 10.5L22.8593 14.5898L25.2031 16.9336L19.2382 19.1055L16.8945 25.0352L14.6054 22.7461L10.4999 26.3711L31.5937 47.4648H35.2734C36.0659 47.4376 36.8378 47.2052 37.5136 46.7903C38.1894 46.3754 38.746 45.7921 39.1288 45.0977L46.9062 31.5625L39.5585 24.2188Z" fill="black"/>
<path d="M25 16.0156C23.2231 16.0156 21.486 16.5425 20.0086 17.5298C18.5311 18.517 17.3795 19.9201 16.6995 21.5618C16.0195 23.2035 15.8416 25.01 16.1883 26.7528C16.5349 28.4956 17.3906 30.0964 18.6471 31.3529C19.9036 32.6094 21.5044 33.4651 23.2472 33.8117C24.99 34.1584 26.7965 33.9805 28.4382 33.3005C30.0799 32.6205 31.483 31.4689 32.4702 29.9915C33.4575 28.514 33.9844 26.7769 33.9844 25C33.9844 22.6172 33.0378 20.332 31.3529 18.6471C29.668 16.9622 27.3828 16.0156 25 16.0156V16.0156ZM25 31.8477C23.6493 31.8484 22.3286 31.4488 21.2049 30.6992C20.0812 29.9497 19.2049 28.8838 18.6868 27.6364C18.1686 26.389 18.0318 25.016 18.2937 23.6909C18.5557 22.3658 19.2045 21.148 20.1582 20.1916C21.112 19.2351 22.3279 18.5828 23.6522 18.3171C24.9766 18.0514 26.35 18.1842 27.5989 18.6988C28.8478 19.2134 29.9161 20.0866 30.6689 21.2082C31.4216 22.3297 31.825 23.6493 31.8281 25C31.8286 25.897 31.6524 26.7853 31.3095 27.6142C30.9666 28.4431 30.4637 29.1963 29.8296 29.8307C29.1955 30.4652 28.4426 30.9685 27.6139 31.3119C26.7852 31.6553 25.897 31.832 25 31.832" fill="white"/>
<path d="M39.1172 23.9336L35.3633 22.7617C35.5232 23.4971 35.6044 24.2474 35.6055 25C35.6054 25.5295 35.5662 26.0583 35.4883 26.582H39.1211C39.2703 26.5591 39.4071 26.4857 39.5088 26.3741C39.6104 26.2625 39.6707 26.1194 39.6797 25.9688V24.5508C39.6707 24.4001 39.6104 24.257 39.5088 24.1454C39.4071 24.0338 39.2703 23.9605 39.1211 23.9375" fill="white"/>
<path d="M25 14.3945C25.7391 14.3952 26.4761 14.4724 27.1992 14.625L25.8516 10.8867C25.8285 10.7369 25.7545 10.5996 25.6421 10.4979C25.5297 10.3962 25.3857 10.3362 25.2344 10.3281H24.6719C24.5203 10.3355 24.3759 10.3952 24.2634 10.497C24.1508 10.5989 24.0771 10.7366 24.0547 10.8867L22.8828 14.6094C23.5772 14.4691 24.2838 14.3984 24.9922 14.3984" fill="white"/>
<path d="M14.3945 25C14.3938 24.245 14.4737 23.492 14.6328 22.7539L10.8789 23.9258C10.7291 23.9489 10.5918 24.0228 10.4901 24.1352C10.3884 24.2476 10.3284 24.3916 10.3203 24.543V25.9609C10.3293 26.1116 10.3896 26.2547 10.4913 26.3663C10.5929 26.4779 10.7297 26.5513 10.8789 26.5742H14.5117C14.4333 26.0505 14.3941 25.5217 14.3945 24.9922" fill="white"/>
<path d="M28.2148 22.0625L27.3438 22.9141C26.7241 22.3697 25.9202 22.0821 25.0959 22.1096C24.2715 22.1372 23.4887 22.4779 22.9067 23.0623C22.3247 23.6468 21.9873 24.4311 21.9633 25.2556C21.9393 26.08 22.2304 26.8826 22.7773 27.5L21.9258 28.3516C22.3387 28.7645 22.829 29.0921 23.3685 29.3156C23.908 29.539 24.4863 29.6541 25.0703 29.6541C25.6543 29.6541 26.2326 29.539 26.7721 29.3156C27.3117 29.0921 27.8019 28.7645 28.2148 28.3516C28.6278 27.9386 28.9554 27.4484 29.1788 26.9088C29.4023 26.3693 29.5174 25.791 29.5174 25.207C29.5174 24.623 29.4023 24.0448 29.1788 23.5052C28.9554 22.9657 28.6278 22.4754 28.2148 22.0625V22.0625ZM26.457 26.457C26.1687 26.7459 25.8012 26.9427 25.4011 27.0226C25.0009 27.1025 24.586 27.0619 24.2089 26.9059C23.8318 26.7499 23.5094 26.4855 23.2826 26.1463C23.0558 25.807 22.9347 25.4081 22.9347 25C22.9347 24.5919 23.0558 24.193 23.2826 23.8537C23.5094 23.5145 23.8318 23.2501 24.2089 23.0941C24.586 22.9381 25.0009 22.8975 25.4011 22.9774C25.8012 23.0573 26.1687 23.2541 26.457 23.543C26.65 23.7334 26.8033 23.9602 26.9078 24.2104C27.0124 24.4605 27.0663 24.7289 27.0663 25C27.0663 25.2711 27.0124 25.5395 26.9078 25.7896C26.8033 26.0398 26.65 26.2666 26.457 26.457" fill="white"/>
</g>
<defs>
<clipPath id="clip0">
<rect width="50" height="50" fill="white"/>
</clipPath>
</defs>
</svg>
