<svg width="50" height="50" viewBox="0 0 50 50" fill="none" xmlns="http://www.w3.org/2000/svg">
<g clip-path="url(#clip0)">
<path d="M49.4023 22.7031L39.1289 4.83594C38.7425 4.1508 38.1839 3.57846 37.5084 3.1756C36.8328 2.77273 36.0638 2.55331 35.2773 2.53906H14.7265C13.94 2.55292 13.1708 2.77218 12.4952 3.17509C11.8196 3.57799 11.261 4.15054 10.875 4.83594L0.597635 22.6562C0.206944 23.3361 0.00134277 24.1065 0.00134277 24.8906C0.00134277 25.6747 0.206944 26.4452 0.597635 27.125L10.8711 45.0938C11.2533 45.7889 11.8089 46.3732 12.4838 46.7901C13.1587 47.2069 13.93 47.4421 14.7226 47.4727H35.2734C36.066 47.4455 36.8379 47.213 37.5137 46.7981C38.1895 46.3832 38.746 45.7999 39.1289 45.1055L49.4023 27.2383C49.7958 26.5473 50.0028 25.7659 50.0028 24.9707C50.0028 24.1755 49.7958 23.3941 49.4023 22.7031V22.7031Z" fill="#4285F4"/>
<path opacity="0.07" d="M33.3945 19.7461L19.2617 21.0469L16.5273 23.7813L18.8711 26.125L16.5469 30.1953L33.8125 47.4609H35.2734C36.066 47.4337 36.8379 47.2013 37.5137 46.7864C38.1895 46.3714 38.746 45.7882 39.1289 45.0937L46.2891 32.6406L33.3945 19.7461Z" fill="black"/>
<path d="M33.0864 19.6367H16.8989C16.8353 19.6346 16.772 19.6453 16.7126 19.6681C16.6532 19.6908 16.599 19.7253 16.5531 19.7693C16.5073 19.8134 16.4707 19.8661 16.4455 19.9245C16.4204 19.9829 16.4072 20.0458 16.4067 20.1094V23.457C16.4067 23.5824 16.4565 23.7026 16.5451 23.7913C16.6338 23.8799 16.754 23.9297 16.8793 23.9297H33.0864C33.2114 23.9287 33.331 23.8786 33.4195 23.7901C33.5079 23.7017 33.558 23.5821 33.559 23.457V20.1094C33.558 19.9843 33.5079 19.8647 33.4195 19.7763C33.331 19.6879 33.2114 19.6378 33.0864 19.6367V19.6367ZM30.5825 22.7617C30.3909 22.7617 30.2036 22.7049 30.0442 22.5985C29.8849 22.492 29.7608 22.3407 29.6874 22.1637C29.6141 21.9867 29.5949 21.7919 29.6323 21.604C29.6697 21.4161 29.762 21.2435 29.8974 21.108C30.0329 20.9725 30.2055 20.8802 30.3935 20.8428C30.5814 20.8055 30.7762 20.8247 30.9532 20.898C31.1302 20.9713 31.2815 21.0955 31.3879 21.2548C31.4944 21.4141 31.5512 21.6014 31.5512 21.793C31.5512 21.9202 31.5262 22.0462 31.4775 22.1637C31.4288 22.2812 31.3574 22.388 31.2675 22.478C31.1775 22.5679 31.0707 22.6393 30.9532 22.688C30.8356 22.7367 30.7097 22.7617 30.5825 22.7617Z" fill="white"/>
<path d="M33.086 26.0703H16.8985C16.8332 26.0682 16.7683 26.0794 16.7076 26.1034C16.6469 26.1273 16.5917 26.1635 16.5456 26.2097C16.4994 26.2558 16.4633 26.3109 16.4393 26.3716C16.4153 26.4323 16.4041 26.4973 16.4063 26.5625V29.9102C16.4073 30.0352 16.4574 30.1549 16.5458 30.2433C16.6343 30.3317 16.7539 30.3818 16.8789 30.3828H33.086C33.211 30.3818 33.3306 30.3317 33.419 30.2433C33.5075 30.1549 33.5576 30.0352 33.5586 29.9102V26.543C33.5576 26.4179 33.5075 26.2983 33.419 26.2099C33.3306 26.1215 33.211 26.0714 33.086 26.0703V26.0703ZM30.5821 29.1953C30.3905 29.1953 30.2032 29.1385 30.0438 29.0321C29.8845 28.9256 29.7604 28.7743 29.687 28.5973C29.6137 28.4203 29.5945 28.2255 29.6319 28.0376C29.6693 27.8497 29.7616 27.6771 29.897 27.5416C30.0325 27.4061 30.2051 27.3138 30.3931 27.2764C30.581 27.2391 30.7758 27.2583 30.9528 27.3316C31.1298 27.4049 31.2811 27.5291 31.3875 27.6884C31.494 27.8477 31.5508 28.035 31.5508 28.2266C31.5508 28.3538 31.5257 28.4798 31.4771 28.5973C31.4284 28.7148 31.357 28.8216 31.2671 28.9116C31.1771 29.0016 31.0703 29.0729 30.9528 29.1216C30.8352 29.1703 30.7093 29.1953 30.5821 29.1953Z" fill="white"/>
</g>
<defs>
<clipPath id="clip0">
<rect width="50" height="50" fill="white"/>
</clipPath>
</defs>
</svg>
