<svg width="50" height="50" viewBox="0 0 50 50" fill="none" xmlns="http://www.w3.org/2000/svg">
<g clip-path="url(#clip0)">
<path d="M49.4023 22.7031L39.1289 4.83594C38.7425 4.1508 38.1839 3.57846 37.5084 3.1756C36.8328 2.77273 36.0638 2.55331 35.2773 2.53906H14.7265C13.94 2.55292 13.1708 2.77218 12.4952 3.17509C11.8196 3.57799 11.261 4.15054 10.875 4.83594L0.597635 22.6562C0.206944 23.3361 0.00134277 24.1065 0.00134277 24.8906C0.00134277 25.6747 0.206944 26.4452 0.597635 27.125L10.8711 45.0938C11.2533 45.7889 11.8089 46.3732 12.4838 46.7901C13.1587 47.2069 13.93 47.4421 14.7226 47.4727H35.2734C36.066 47.4455 36.8379 47.213 37.5137 46.7981C38.1895 46.3832 38.746 45.7999 39.1289 45.1055L49.4023 27.2383C49.7958 26.5473 50.0028 25.7659 50.0028 24.9707C50.0028 24.1755 49.7958 23.3941 49.4023 22.7031V22.7031Z" fill="#4285F4"/>
<path opacity="0.07" d="M32.8125 17.9219L25.2617 15.332L17.2695 21.3711L22.2656 26.3672L17.2539 26.8555L21.9414 31.543L17.1875 32.1289L32.5273 47.4609H35.2617C36.0543 47.4337 36.8262 47.2013 37.502 46.7864C38.1778 46.3714 38.7343 45.7882 39.1172 45.0938L46.7266 31.8594L32.8125 17.9219Z" fill="black"/>
<path d="M25 13.3711L17.1875 17.8828V21.3711L25 25.8789L32.8125 21.3711V17.8828L25 13.3711ZM29.668 19.5742L25 22.2656L20.3359 19.5742L25 16.8789L29.6641 19.5703L29.668 19.5742Z" fill="white"/>
<path d="M17.1875 23.3398V26.8281L25 31.3398L32.8125 26.8281V23.3398L25 27.8516L17.1875 23.3398Z" fill="white"/>
<path d="M17.1875 28.6289V32.1172L25 36.6289L32.8125 32.1172V28.6289L25 33.1406L17.1875 28.6289Z" fill="white"/>
</g>
<defs>
<clipPath id="clip0">
<rect width="50" height="50" fill="white"/>
</clipPath>
</defs>
</svg>
