<svg width="50" height="50" viewBox="0 0 50 50" fill="none" xmlns="http://www.w3.org/2000/svg">
<path d="M42.7083 5.20831H7.29163L10.4166 40.625L25 44.7916L39.5833 40.625L42.7083 5.20831Z" fill="#0277BD"/>
<path d="M25 8.33331V41.5625L36.6667 38.2291L39.2708 8.33331H25Z" fill="#039BE5"/>
<path d="M34.4792 13.5417H25V17.7084H30.1042L29.7917 21.875H25V26.0417H29.5833L29.2708 30.7292L25 32.1875V36.5625L33.2292 33.8542L33.9583 21.875L34.4792 13.5417Z" fill="white"/>
<path d="M25 13.5417V17.7084H15.7291L15.4166 13.5417H25ZM20.2083 21.875L20.4166 26.0417H25V21.875H20.2083ZM20.625 28.125H16.4583L16.7708 33.8542L25 36.5625V32.1875L20.7291 30.7292L20.625 28.125Z" fill="#EEEEEE"/>
</svg>
