<svg width="50" height="46" viewBox="0 0 50 46" fill="none" xmlns="http://www.w3.org/2000/svg">
<path d="M1.756 18.432H7.516V18.888H2.284V22.32H7.204V22.776H2.284V26.544H7.576V27H1.756V18.432ZM10.0668 23.76L7.81084 20.832H8.44684L10.3788 23.412L12.3228 20.832H12.9108L10.6788 23.76L13.1148 27H12.4908L10.3788 24.108L8.21884 27H7.64284L10.0668 23.76ZM14.2829 22.248H14.3069C14.3549 22.096 14.4349 21.928 14.5469 21.744C14.6589 21.56 14.8069 21.392 14.9909 21.24C15.1749 21.08 15.3949 20.948 15.6509 20.844C15.9149 20.74 16.2149 20.688 16.5509 20.688C17.0229 20.688 17.4309 20.776 17.7749 20.952C18.1269 21.128 18.4149 21.364 18.6389 21.66C18.8709 21.956 19.0429 22.3 19.1549 22.692C19.2669 23.084 19.3229 23.496 19.3229 23.928C19.3229 24.4 19.2669 24.832 19.1549 25.224C19.0429 25.616 18.8709 25.956 18.6389 26.244C18.4149 26.524 18.1269 26.744 17.7749 26.904C17.4309 27.064 17.0229 27.144 16.5509 27.144C16.0389 27.144 15.5829 27.032 15.1829 26.808C14.7829 26.584 14.4909 26.22 14.3069 25.716H14.2829V29.208H13.8269V20.832H14.2829V22.248ZM16.5509 26.748C16.9509 26.748 17.2949 26.672 17.5829 26.52C17.8789 26.368 18.1189 26.164 18.3029 25.908C18.4949 25.652 18.6349 25.356 18.7229 25.02C18.8189 24.676 18.8669 24.312 18.8669 23.928C18.8669 23.576 18.8229 23.232 18.7349 22.896C18.6469 22.552 18.5109 22.248 18.3269 21.984C18.1429 21.712 17.9029 21.496 17.6069 21.336C17.3189 21.168 16.9669 21.084 16.5509 21.084C16.1429 21.084 15.7949 21.164 15.5069 21.324C15.2189 21.484 14.9829 21.696 14.7989 21.96C14.6229 22.224 14.4949 22.528 14.4149 22.872C14.3349 23.208 14.2949 23.56 14.2949 23.928C14.2949 24.296 14.3309 24.652 14.4029 24.996C14.4749 25.332 14.5949 25.632 14.7629 25.896C14.9389 26.152 15.1709 26.36 15.4589 26.52C15.7549 26.672 16.1189 26.748 16.5509 26.748ZM20.8428 22.2H20.8788C20.9348 22 21.0348 21.812 21.1788 21.636C21.3308 21.46 21.5108 21.308 21.7188 21.18C21.9348 21.052 22.1708 20.956 22.4268 20.892C22.6908 20.82 22.9628 20.788 23.2428 20.796V21.252C23.0028 21.22 22.7268 21.244 22.4148 21.324C22.1108 21.404 21.8188 21.58 21.5388 21.852C21.4268 21.972 21.3268 22.088 21.2388 22.2C21.1588 22.312 21.0908 22.436 21.0348 22.572C20.9788 22.708 20.9348 22.86 20.9028 23.028C20.8708 23.196 20.8508 23.396 20.8428 23.628V27H20.3868V20.832H20.8428V22.2ZM23.7661 23.976V24.048C23.7661 24.408 23.8141 24.752 23.9101 25.08C24.0061 25.408 24.1461 25.696 24.3301 25.944C24.5221 26.192 24.7581 26.388 25.0381 26.532C25.3261 26.676 25.6581 26.748 26.0341 26.748C26.6501 26.748 27.1381 26.588 27.4981 26.268C27.8581 25.94 28.1061 25.488 28.2421 24.912H28.6981C28.5621 25.632 28.2661 26.184 27.8101 26.568C27.3621 26.952 26.7661 27.144 26.0221 27.144C25.5661 27.144 25.1661 27.064 24.8221 26.904C24.4861 26.736 24.2021 26.512 23.9701 26.232C23.7461 25.944 23.5781 25.608 23.4661 25.224C23.3541 24.832 23.2981 24.412 23.2981 23.964C23.2981 23.532 23.3541 23.12 23.4661 22.728C23.5861 22.328 23.7621 21.98 23.9941 21.684C24.2261 21.38 24.5141 21.14 24.8581 20.964C25.2101 20.78 25.6221 20.688 26.0941 20.688C26.5261 20.688 26.9061 20.768 27.2341 20.928C27.5701 21.088 27.8501 21.308 28.0741 21.588C28.2981 21.86 28.4661 22.18 28.5781 22.548C28.6981 22.908 28.7581 23.296 28.7581 23.712C28.7581 23.752 28.7541 23.8 28.7461 23.856C28.7461 23.904 28.7461 23.944 28.7461 23.976H23.7661ZM28.2901 23.58C28.2741 23.244 28.2181 22.928 28.1221 22.632C28.0261 22.328 27.8821 22.064 27.6901 21.84C27.5061 21.608 27.2781 21.424 27.0061 21.288C26.7421 21.152 26.4381 21.084 26.0941 21.084C25.7261 21.084 25.4021 21.156 25.1221 21.3C24.8421 21.436 24.6061 21.62 24.4141 21.852C24.2221 22.076 24.0741 22.34 23.9701 22.644C23.8661 22.948 23.8021 23.26 23.7781 23.58H28.2901ZM30.0247 24.948C30.0407 25.236 30.1047 25.492 30.2167 25.716C30.3287 25.932 30.4727 26.12 30.6487 26.28C30.8327 26.432 31.0447 26.548 31.2847 26.628C31.5247 26.708 31.7847 26.748 32.0647 26.748C32.2647 26.748 32.4767 26.732 32.7007 26.7C32.9327 26.66 33.1447 26.592 33.3367 26.496C33.5367 26.4 33.7007 26.268 33.8287 26.1C33.9567 25.924 34.0207 25.704 34.0207 25.44C34.0207 25.096 33.9167 24.836 33.7087 24.66C33.5007 24.484 33.2367 24.348 32.9167 24.252C32.6047 24.156 32.2647 24.08 31.8967 24.024C31.5367 23.96 31.1967 23.868 30.8767 23.748C30.5647 23.628 30.3047 23.46 30.0967 23.244C29.8887 23.02 29.7847 22.696 29.7847 22.272C29.7847 21.968 29.8527 21.716 29.9887 21.516C30.1247 21.308 30.2967 21.144 30.5047 21.024C30.7207 20.904 30.9607 20.82 31.2247 20.772C31.4887 20.716 31.7527 20.688 32.0167 20.688C32.3367 20.688 32.6367 20.724 32.9167 20.796C33.1967 20.868 33.4367 20.984 33.6367 21.144C33.8447 21.304 34.0047 21.508 34.1167 21.756C34.2367 22.004 34.2967 22.304 34.2967 22.656H33.8407C33.8407 22.376 33.7927 22.136 33.6967 21.936C33.6087 21.736 33.4807 21.576 33.3127 21.456C33.1527 21.328 32.9607 21.236 32.7367 21.18C32.5127 21.116 32.2727 21.084 32.0167 21.084C31.8087 21.084 31.5967 21.104 31.3807 21.144C31.1727 21.184 30.9847 21.252 30.8167 21.348C30.6487 21.444 30.5087 21.568 30.3967 21.72C30.2927 21.872 30.2407 22.056 30.2407 22.272C30.2407 22.52 30.3007 22.72 30.4207 22.872C30.5407 23.024 30.6967 23.148 30.8887 23.244C31.0887 23.332 31.3087 23.404 31.5487 23.46C31.7967 23.516 32.0447 23.572 32.2927 23.628C32.5967 23.684 32.8807 23.752 33.1447 23.832C33.4167 23.904 33.6487 24.008 33.8407 24.144C34.0407 24.272 34.1967 24.44 34.3087 24.648C34.4207 24.856 34.4767 25.12 34.4767 25.44C34.4767 25.776 34.4007 26.052 34.2487 26.268C34.0967 26.484 33.9047 26.66 33.6727 26.796C33.4407 26.924 33.1807 27.012 32.8927 27.06C32.6127 27.116 32.3367 27.144 32.0647 27.144C31.7127 27.144 31.3847 27.096 31.0807 27C30.7847 26.912 30.5247 26.776 30.3007 26.592C30.0767 26.4 29.9007 26.168 29.7727 25.896C29.6447 25.624 29.5767 25.308 29.5687 24.948H30.0247ZM35.8021 24.948C35.8181 25.236 35.8821 25.492 35.9941 25.716C36.1061 25.932 36.2501 26.12 36.4261 26.28C36.6101 26.432 36.8221 26.548 37.0621 26.628C37.3021 26.708 37.5621 26.748 37.8421 26.748C38.0421 26.748 38.2541 26.732 38.4781 26.7C38.7101 26.66 38.9221 26.592 39.1141 26.496C39.3141 26.4 39.4781 26.268 39.6061 26.1C39.7341 25.924 39.7981 25.704 39.7981 25.44C39.7981 25.096 39.6941 24.836 39.4861 24.66C39.2781 24.484 39.0141 24.348 38.6941 24.252C38.3821 24.156 38.0421 24.08 37.6741 24.024C37.3141 23.96 36.9741 23.868 36.6541 23.748C36.3421 23.628 36.0821 23.46 35.8741 23.244C35.6661 23.02 35.5621 22.696 35.5621 22.272C35.5621 21.968 35.6301 21.716 35.7661 21.516C35.9021 21.308 36.0741 21.144 36.2821 21.024C36.4981 20.904 36.7381 20.82 37.0021 20.772C37.2661 20.716 37.5301 20.688 37.7941 20.688C38.1141 20.688 38.4141 20.724 38.6941 20.796C38.9741 20.868 39.2141 20.984 39.4141 21.144C39.6221 21.304 39.7821 21.508 39.8941 21.756C40.0141 22.004 40.0741 22.304 40.0741 22.656H39.6181C39.6181 22.376 39.5701 22.136 39.4741 21.936C39.3861 21.736 39.2581 21.576 39.0901 21.456C38.9301 21.328 38.7381 21.236 38.5141 21.18C38.2901 21.116 38.0501 21.084 37.7941 21.084C37.5861 21.084 37.3741 21.104 37.1581 21.144C36.9501 21.184 36.7621 21.252 36.5941 21.348C36.4261 21.444 36.2861 21.568 36.1741 21.72C36.0701 21.872 36.0181 22.056 36.0181 22.272C36.0181 22.52 36.0781 22.72 36.1981 22.872C36.3181 23.024 36.4741 23.148 36.6661 23.244C36.8661 23.332 37.0861 23.404 37.3261 23.46C37.5741 23.516 37.8221 23.572 38.0701 23.628C38.3741 23.684 38.6581 23.752 38.9221 23.832C39.1941 23.904 39.4261 24.008 39.6181 24.144C39.8181 24.272 39.9741 24.44 40.0861 24.648C40.1981 24.856 40.2541 25.12 40.2541 25.44C40.2541 25.776 40.1781 26.052 40.0261 26.268C39.8741 26.484 39.6821 26.66 39.4501 26.796C39.2181 26.924 38.9581 27.012 38.6701 27.06C38.3901 27.116 38.1141 27.144 37.8421 27.144C37.4901 27.144 37.1621 27.096 36.8581 27C36.5621 26.912 36.3021 26.776 36.0781 26.592C35.8541 26.4 35.6781 26.168 35.5501 25.896C35.4221 25.624 35.3541 25.308 35.3461 24.948H35.8021ZM41.4714 19.668V18.432H41.9274V19.668H41.4714ZM41.9274 20.832V27.66C41.9274 27.868 41.9114 28.064 41.8794 28.248C41.8474 28.44 41.7834 28.604 41.6874 28.74C41.5994 28.884 41.4714 28.996 41.3034 29.076C41.1434 29.164 40.9314 29.208 40.6674 29.208H40.4754C40.4434 29.208 40.4114 29.208 40.3794 29.208C40.3474 29.208 40.3154 29.204 40.2834 29.196V28.8C40.3234 28.808 40.3674 28.812 40.4154 28.812C40.4634 28.82 40.5194 28.824 40.5834 28.824C40.7434 28.824 40.8794 28.804 40.9914 28.764C41.1034 28.732 41.1954 28.668 41.2674 28.572C41.3394 28.484 41.3914 28.36 41.4234 28.2C41.4554 28.048 41.4714 27.856 41.4714 27.624V20.832H41.9274ZM43.595 24.948C43.611 25.236 43.675 25.492 43.787 25.716C43.899 25.932 44.043 26.12 44.219 26.28C44.403 26.432 44.615 26.548 44.855 26.628C45.095 26.708 45.355 26.748 45.635 26.748C45.835 26.748 46.047 26.732 46.271 26.7C46.503 26.66 46.715 26.592 46.907 26.496C47.107 26.4 47.271 26.268 47.399 26.1C47.527 25.924 47.591 25.704 47.591 25.44C47.591 25.096 47.487 24.836 47.279 24.66C47.071 24.484 46.807 24.348 46.487 24.252C46.175 24.156 45.835 24.08 45.467 24.024C45.107 23.96 44.767 23.868 44.447 23.748C44.135 23.628 43.875 23.46 43.667 23.244C43.459 23.02 43.355 22.696 43.355 22.272C43.355 21.968 43.423 21.716 43.559 21.516C43.695 21.308 43.867 21.144 44.075 21.024C44.291 20.904 44.531 20.82 44.795 20.772C45.059 20.716 45.323 20.688 45.587 20.688C45.907 20.688 46.207 20.724 46.487 20.796C46.767 20.868 47.007 20.984 47.207 21.144C47.415 21.304 47.575 21.508 47.687 21.756C47.807 22.004 47.867 22.304 47.867 22.656H47.411C47.411 22.376 47.363 22.136 47.267 21.936C47.179 21.736 47.051 21.576 46.883 21.456C46.723 21.328 46.531 21.236 46.307 21.18C46.083 21.116 45.843 21.084 45.587 21.084C45.379 21.084 45.167 21.104 44.951 21.144C44.743 21.184 44.555 21.252 44.387 21.348C44.219 21.444 44.079 21.568 43.967 21.72C43.863 21.872 43.811 22.056 43.811 22.272C43.811 22.52 43.871 22.72 43.991 22.872C44.111 23.024 44.267 23.148 44.459 23.244C44.659 23.332 44.879 23.404 45.119 23.46C45.367 23.516 45.615 23.572 45.863 23.628C46.167 23.684 46.451 23.752 46.715 23.832C46.987 23.904 47.219 24.008 47.411 24.144C47.611 24.272 47.767 24.44 47.879 24.648C47.991 24.856 48.047 25.12 48.047 25.44C48.047 25.776 47.971 26.052 47.819 26.268C47.667 26.484 47.475 26.66 47.243 26.796C47.011 26.924 46.751 27.012 46.463 27.06C46.183 27.116 45.907 27.144 45.635 27.144C45.283 27.144 44.955 27.096 44.651 27C44.355 26.912 44.095 26.776 43.871 26.592C43.647 26.4 43.471 26.168 43.343 25.896C43.215 25.624 43.147 25.308 43.139 24.948H43.595Z" fill="white"/>
</svg>
