<svg width="50" height="50" viewBox="0 0 50 50" fill="none" xmlns="http://www.w3.org/2000/svg">
<path d="M41.4402 2H9.55977C5.93691 2 3 4.93691 3 8.55977V40.4402C3 44.0631 5.93691 47 9.55977 47H41.4402C45.0631 47 48 44.0631 48 40.4402V8.55977C48 4.93691 45.0631 2 41.4402 2Z" fill="#525967"/>
<path d="M41.4402 3.96793C42.6581 3.96793 43.826 4.45171 44.6871 5.31285C45.5483 6.17399 46.0321 7.34194 46.0321 8.55977V40.4402C46.0321 41.6581 45.5483 42.826 44.6871 43.6871C43.826 44.5483 42.6581 45.0321 41.4402 45.0321H9.55977C8.34194 45.0321 7.17399 44.5483 6.31285 43.6871C5.45171 42.826 4.96793 41.6581 4.96793 40.4402V8.55977C4.96793 7.34194 5.45171 6.17399 6.31285 5.31285C7.17399 4.45171 8.34194 3.96793 9.55977 3.96793H41.4402ZM41.4402 2H9.55977C7.82001 2 6.15151 2.69112 4.92131 3.92131C3.69112 5.15151 3 6.82001 3 8.55977V40.4402C3 42.18 3.69112 43.8485 4.92131 45.0787C6.15151 46.3089 7.82001 47 9.55977 47H41.4402C43.18 47 44.8485 46.3089 46.0787 45.0787C47.3089 43.8485 48 42.18 48 40.4402V8.55977C48 6.82001 47.3089 5.15151 46.0787 3.92131C44.8485 2.69112 43.18 2 41.4402 2Z" fill="#454B57"/>
<path d="M19.8912 41.3258C20.6277 41.3258 21.357 41.1808 22.0375 40.8989C22.718 40.6171 23.3363 40.2039 23.8571 39.6831C24.3779 39.1623 24.791 38.544 25.0729 37.8636C25.3547 37.1831 25.4998 36.4538 25.4998 35.7172V30.1086H19.8912C19.1547 30.1086 18.4253 30.2537 17.7449 30.5356C17.0644 30.8174 16.4461 31.2306 15.9253 31.7514C15.4045 32.2722 14.9914 32.8905 14.7095 33.5709C14.4277 34.2514 14.2826 34.9807 14.2826 35.7172C14.2826 36.4538 14.4277 37.1831 14.7095 37.8636C14.9914 38.544 15.4045 39.1623 15.9253 39.6831C16.4461 40.2039 17.0644 40.6171 17.7449 40.8989C18.4253 41.1808 19.1547 41.3258 19.8912 41.3258Z" fill="#0ACF83"/>
<path d="M14.2826 24.5C14.2826 23.0125 14.8735 21.5859 15.9253 20.5341C16.9771 19.4823 18.4037 18.8914 19.8912 18.8914H25.4998V30.1086H19.8912C18.4037 30.1086 16.9771 29.5176 15.9253 28.4658C14.8735 27.414 14.2826 25.9874 14.2826 24.5Z" fill="#A259FF"/>
<path d="M14.2826 13.2829C14.2826 11.7954 14.8735 10.3688 15.9253 9.31698C16.9771 8.26516 18.4037 7.67426 19.8912 7.67426H25.4998V18.8915H19.8912C18.4037 18.8915 16.9771 18.3005 15.9253 17.2487C14.8735 16.1969 14.2826 14.7703 14.2826 13.2829Z" fill="#F24E1E"/>
<path d="M25.5 7.70697H31.1086C32.5961 7.70697 34.0227 8.29787 35.0745 9.34969C36.1263 10.4015 36.7172 11.8281 36.7172 13.3156C36.7172 14.8031 36.1263 16.2296 35.0745 17.2815C34.0227 18.3333 32.5961 18.9242 31.1086 18.9242H25.5V7.70697Z" fill="#FF7262"/>
<path d="M36.7172 24.5C36.7172 25.6092 36.3883 26.6936 35.772 27.6159C35.1557 28.5383 34.2798 29.2571 33.2549 29.6816C32.2301 30.1061 31.1024 30.2172 30.0144 30.0008C28.9265 29.7844 27.9271 29.2502 27.1427 28.4658C26.3583 27.6815 25.8242 26.6821 25.6078 25.5941C25.3914 24.5062 25.5024 23.3785 25.9269 22.3536C26.3514 21.3288 27.0703 20.4529 27.9926 19.8366C28.915 19.2203 29.9993 18.8914 31.1086 18.8914C32.5961 18.8914 34.0227 19.4823 35.0745 20.5341C36.1263 21.5859 36.7172 23.0125 36.7172 24.5Z" fill="#1ABCFE"/>
</svg>
