<svg width="50" height="50" viewBox="0 0 50 50" fill="none" xmlns="http://www.w3.org/2000/svg">
<path d="M43.9584 23.0208L26.9792 6.04165C26.4584 5.52081 25.7292 5.20831 25 5.20831C24.2709 5.20831 23.5417 5.52081 23.0209 6.04165L19.375 9.68748L23.6459 13.9583C24.0625 13.75 24.4792 13.6458 25 13.6458C26.7709 13.6458 28.125 15 28.125 16.7708C28.125 17.2916 28.0209 17.7083 27.8125 18.125L31.9792 22.2916C32.3959 22.0833 32.8125 21.9791 33.3334 21.9791C35.1042 21.9791 36.4584 23.3333 36.4584 25.1041C36.4584 26.875 35.1042 28.2291 33.3334 28.2291C31.5625 28.2291 30.2084 26.875 30.2084 25.1041C30.2084 24.5833 30.3125 24.1666 30.5209 23.75L26.3542 19.5833C26.25 19.5833 26.1459 19.6875 26.0417 19.6875V30.5208C27.2917 30.9375 28.125 32.0833 28.125 33.4375C28.125 35.2083 26.7709 36.5625 25 36.5625C23.2292 36.5625 21.875 35.2083 21.875 33.4375C21.875 32.0833 22.7084 30.9375 23.9584 30.5208V19.5833C22.7084 19.1666 21.875 18.0208 21.875 16.6666C21.875 16.1458 21.9792 15.7291 22.1875 15.3125L17.9167 11.0416L6.04171 23.0208C5.52087 23.5416 5.20837 24.2708 5.20837 25C5.20837 25.7291 5.52087 26.4583 6.04171 26.9791L23.0209 43.9583C23.5417 44.4791 24.2709 44.7916 25 44.7916C25.7292 44.7916 26.4584 44.4791 26.9792 43.9583L43.9584 26.9791C44.4792 26.4583 44.7917 25.7291 44.7917 25C44.7917 24.2708 44.4792 23.5416 43.9584 23.0208Z" fill="#F4511E"/>
</svg>
