<svg width="50" height="49" viewBox="0 0 50 49" fill="none" xmlns="http://www.w3.org/2000/svg">
<path fill-rule="evenodd" clip-rule="evenodd" d="M24.999 0C11.1927 0 0 11.246 0 25.1224C0 36.2193 7.1625 45.6346 17.0979 48.9562C18.3479 49.1877 18.8052 48.412 18.8052 47.7468C18.8052 47.1494 18.7833 45.57 18.7698 43.4745C11.8156 44.9924 10.3479 40.107 10.3479 40.107C9.21252 37.2045 7.57395 36.432 7.57395 36.432C5.30312 34.8734 7.74581 34.9047 7.74581 34.9047C10.2531 35.0819 11.5729 37.4934 11.5729 37.4934C13.8052 41.3331 17.425 40.2249 18.85 39.5806C19.076 37.9573 19.7229 36.8501 20.4375 36.2225C14.8854 35.5876 9.04999 33.4336 9.04999 23.8077C9.04999 21.0658 10.0229 18.8233 11.6229 17.0666C11.3656 16.4306 10.5083 13.8774 11.8677 10.4182C11.8677 10.4182 13.9666 9.74372 18.7427 12.9934C20.7375 12.4366 22.875 12.1582 25.001 12.1478C27.125 12.1582 29.2635 12.4366 31.2614 12.9934C36.0323 9.74372 38.1282 10.4182 38.1282 10.4182C39.4927 13.8774 38.6344 16.4306 38.3771 17.0666C39.9791 18.8233 40.9469 21.0648 40.9469 23.8077C40.9469 33.4576 35.1021 35.5813 29.5333 36.2037C30.4292 36.9794 31.2302 38.5109 31.2302 40.8556C31.2302 44.2126 31.1989 46.9222 31.1989 47.7468C31.1989 48.4182 31.649 49.2002 32.9177 48.9531C42.8438 45.6253 50 36.2162 50 25.1224C50 11.246 38.8063 0 24.999 0Z" fill="#3E75C3"/>
</svg>
