<svg width="50" height="50" viewBox="0 0 50 50" fill="none" xmlns="http://www.w3.org/2000/svg">
<g clip-path="url(#clip0)">
<path d="M33.2517 16.0429L37.5977 11.7175L37.8866 9.89723C29.9676 2.72993 17.3784 3.54336 10.2376 11.5927C8.2419 13.8737 6.79274 16.5758 5.99939 19.4954L7.55527 19.2762L16.2478 17.8522L16.9177 17.1696C18.7769 15.1239 21.3501 13.8608 24.1128 13.6379C26.8754 13.4149 29.6195 14.2489 31.7857 15.9697L33.2517 16.0429Z" fill="#EA4335"/>
<path d="M43.7907 19.3661C42.7918 15.7046 40.7404 12.4131 37.8884 9.89536L31.7879 15.9663C33.0591 16.9999 34.0779 18.3073 34.7674 19.7898C35.4568 21.2723 35.799 22.8913 35.7682 24.5246V25.6016C37.2 25.6016 38.5731 26.1676 39.5855 27.1752C40.5979 28.1827 41.1667 29.5492 41.1667 30.9741C41.1667 32.3989 40.5979 33.7654 39.5855 34.7729C38.5731 35.7805 37.2 36.3465 35.7682 36.3465H24.8963L23.8293 37.5001V43.9814L24.8963 44.9992H35.7685C38.7972 45.0311 41.7555 44.0904 44.2044 42.3167C46.6533 40.543 48.4623 38.0308 49.363 35.153C50.2637 32.2752 50.208 29.1851 49.2043 26.3412C48.2006 23.4973 46.3023 21.0513 43.7911 19.3661" fill="#4285F4"/>
<path d="M14.0368 44.9992H24.8972V36.3488H14.0368C13.2684 36.3482 12.5091 36.1829 11.8106 35.8641L10.2699 36.3336L5.89303 40.6586L5.51196 42.1304C7.96222 43.988 10.9565 44.9956 14.0368 44.9992Z" fill="#34A853"/>
<path d="M14.0371 16.9394C11.095 16.9572 8.23195 17.889 5.84775 19.6046C3.46356 21.3202 1.6773 23.734 0.738409 26.5088C-0.200479 29.2837 -0.245108 32.281 0.610754 35.0824C1.46662 37.8837 3.18024 40.349 5.5123 42.1342L11.8113 35.8657C11.0109 35.5058 10.3102 34.9581 9.76924 34.2695C9.2283 33.5809 8.86332 32.772 8.70561 31.9121C8.5479 31.0523 8.60217 30.1672 8.86376 29.3328C9.12535 28.4984 9.58645 27.7397 10.2075 27.1216C10.8285 26.5036 11.591 26.0447 12.4294 25.7844C13.2679 25.5241 14.1573 25.4701 15.0213 25.627C15.8853 25.7839 16.6982 26.1472 17.3901 26.6855C18.0821 27.2238 18.6324 27.9212 18.994 28.7177L25.293 22.4491C23.9709 20.7291 22.2669 19.3367 20.3142 18.3809C18.3616 17.4251 16.2132 16.9317 14.0371 16.9394Z" fill="#FBBC05"/>
</g>
<defs>
<clipPath id="clip0">
<rect width="50" height="50" fill="white"/>
</clipPath>
</defs>
</svg>
