<svg width="50" height="50" viewBox="0 0 50 50" fill="none" xmlns="http://www.w3.org/2000/svg">
<path d="M37.25 27.4583H37.2604C37.2604 27.4583 33.3333 33.2188 30.0312 37.5C27.177 41.1979 26.3437 44.3646 26.1041 45.8958C26.0104 46.4583 25.552 46.875 25 46.875C24.4479 46.875 23.9895 46.4583 23.8958 45.8958C23.6562 44.3646 22.8229 41.1979 19.9687 37.5C19.5312 36.9271 19.0833 36.3333 18.6354 35.7292L29.4166 22.9167L38.0937 12.625C39.052 14.6354 39.5833 16.8854 39.5833 19.2708C39.5833 22.2917 38.7187 25.0938 37.25 27.4583Z" fill="#48B564"/>
<path d="M29.4166 22.9167L18.6354 35.7292C15.6979 31.7917 12.7395 27.4583 12.7395 27.4583H12.75C12.4375 26.9583 12.1562 26.4479 11.9166 25.9167L20.5833 15.625C19.7604 16.6146 19.2708 17.8854 19.2708 19.2708C19.2708 22.4375 21.8333 25 25 25C26.7812 25 28.375 24.1875 29.4166 22.9167Z" fill="#FCC60E"/>
<path d="M29.5833 4.93752L20.6562 15.5417L13.8229 9.58335C16.4895 6.27085 20.5104 4.16669 25 4.16669C26.6041 4.16669 28.1458 4.43752 29.5833 4.93752Z" fill="#2C85EB"/>
<path d="M20.6562 15.5416L20.5833 15.625L11.9166 25.9166C10.9583 23.9062 10.4166 21.6562 10.4166 19.2708C10.4166 15.5833 11.6979 12.1979 13.8229 9.58331L20.6562 15.5416Z" fill="#ED5748"/>
<path d="M29.4167 22.9167C30.2396 21.9271 30.7292 20.6562 30.7292 19.2708C30.7292 16.1042 28.1667 13.5417 25 13.5417C23.2188 13.5417 21.625 14.3542 20.5834 15.625L29.5834 4.9375C33.323 6.20833 36.3855 9.01042 38.0938 12.625L29.4167 22.9167Z" fill="#5695F6"/>
</svg>
