<svg width="50" height="50" viewBox="0 0 50 50" fill="none" xmlns="http://www.w3.org/2000/svg">
<path d="M46.0416 23.6458L36.1458 7.5C35.7291 6.77083 34.7916 6.25 33.8541 6.25H16.0416C15.1041 6.25 14.2708 6.77083 13.75 7.5L3.95831 23.6458C3.43748 24.4792 3.43748 25.625 3.95831 26.4583L13.75 42.5C14.2708 43.3333 15.1041 43.75 16.0416 43.75H33.8541C34.7916 43.75 35.625 43.2292 36.1458 42.5L46.0416 26.4583C46.5625 25.5208 46.5625 24.4792 46.0416 23.6458Z" fill="#2196F3"/>
<path d="M30.2083 15.625L28.125 17.7083L26.0417 15.625L23.9583 17.7083L21.875 15.625L19.7917 19.7917L15.625 21.875L17.7083 23.9583L15.625 26.0417L17.7083 28.125L15.625 30.2083L29.1667 43.75H33.8542C34.7917 43.75 35.625 43.2292 36.1458 42.5L44.0625 29.5833L30.2083 15.625Z" fill="#1976D2"/>
<path d="M22.9167 22.9167H27.0834V27.0834H22.9167V22.9167Z" fill="white"/>
<path d="M34.375 21.875V19.7917H31.25V18.75H30.2083V15.625H28.125V18.75H26.0417V15.625H23.9583V18.75H21.875V15.625H19.7917V18.75H18.75V19.7917H15.625V21.875H18.75V23.9583H15.625V26.0417H18.75V28.125H15.625V30.2083H18.75V31.25H19.7917V34.375H21.875V31.25H23.9583V34.375H26.0417V31.25H28.125V34.375H30.2083V31.25H31.25V30.2083H34.375V28.125H31.25V26.0417H34.375V23.9583H31.25V21.875H34.375ZM20.8333 29.1667V20.8333H29.1667V29.1667H20.8333Z" fill="white"/>
</svg>
