<svg width="50" height="50" viewBox="0 0 50 50" fill="none" xmlns="http://www.w3.org/2000/svg">
<path fill-rule="evenodd" clip-rule="evenodd" d="M37.4332 34.732C38.8336 33.6895 39.5519 32.3707 39.8855 30.7383C41.5097 32.3445 42.082 34.2336 41.948 36.3672C41.7664 39.2606 40.4375 41.3692 37.6937 42.502C37.4789 42.591 37.2851 42.825 37.1668 43.0391C35.8808 45.3692 33.989 46.8438 31.323 47.2652C31.0996 47.3004 30.8765 47.4277 30.6844 47.5578C27.514 49.6973 22.4746 49.6895 19.2879 47.543C19.0789 47.402 18.8222 47.2973 18.5738 47.2547C16.1765 46.8402 14.3554 45.5758 13.123 43.5004C12.7648 42.8965 12.3484 42.4902 11.7008 42.1945C7.0738 40.0828 7.15271 33.2367 10.0472 30.8516C10.3297 31.5488 10.5476 32.2813 10.9125 32.932C11.2804 33.5887 11.7937 34.1637 12.2433 34.7746L12.4636 34.7145C12.5398 33.9492 12.6414 33.1856 12.6855 32.4188C12.7476 31.3391 12.7949 30.2567 12.798 29.175C12.8019 27.8547 12.3082 26.8266 11.0613 26.1844C10.1484 25.7141 9.23709 25.1934 8.44256 24.55C6.50037 22.9774 6.54959 20.8574 8.51287 19.3363C8.98435 18.9715 9.26404 18.5547 9.31912 17.9649C9.43513 16.7219 9.63045 15.4824 8.74021 14.3863C8.49334 14.0824 8.36912 13.6606 8.25115 13.2734C7.67615 11.3918 8.60193 9.89181 10.5519 9.58595C11.114 9.49767 11.4199 9.35236 11.4871 8.69806C11.607 7.53204 11.3566 6.73126 10.2824 6.16954C9.42732 5.72189 8.4738 5.46173 7.52966 5.10509C8.63279 3.51993 10.2734 2.79728 12.1961 2.68126C14.7383 2.52736 16.7312 3.6879 18.4269 5.46798C18.7086 5.76329 18.9441 6.1047 19.2406 6.38282C19.3871 6.52072 19.6285 6.63478 19.8156 6.61954C19.9129 6.61134 20.0437 6.30353 20.0594 6.12306C20.1867 4.63048 20.8609 3.42579 21.9613 2.44376C22.1488 2.27657 22.3863 2.16525 22.6054 2.02501L23.1453 4.55314L23.3797 4.55079C23.7664 2.5254 25.1484 1.49337 26.9582 0.84259C26.9203 1.44884 26.8316 2.01681 26.8648 2.57736C26.8972 3.11447 27.0554 3.64454 27.1785 4.28009C28.2078 3.56212 29.1039 2.81681 30.2777 2.84767C30.025 3.80939 29.7504 4.74572 29.5402 5.6965C29.4324 6.18439 29.5672 6.64689 30.1879 6.634C30.4148 6.62931 30.6949 6.45236 30.8523 6.26915C32.1898 4.71486 33.6726 3.38517 35.7359 2.87384C38.3676 2.2215 41.0164 3.10431 42.5156 5.19923C42.2308 5.26915 41.9629 5.31329 41.7101 5.40157C41.0574 5.63048 40.3656 5.79806 39.7726 6.13595C38.5164 6.85197 38.3152 7.52853 38.616 9.13478C38.6433 9.2797 38.8738 9.43243 39.0418 9.49415C39.3086 9.59181 39.609 9.59415 39.8836 9.6754C41.4879 10.1477 42.2543 11.4766 41.7961 13.0805C41.6336 13.6492 41.3781 14.2109 41.0633 14.7121C40.2472 16.0109 40.55 17.3488 40.8844 18.6731C40.9586 18.9664 41.348 19.1996 41.625 19.4203C43.3164 20.7684 43.4793 22.8242 41.8551 24.2625C40.9515 25.0625 39.8562 25.6629 38.7969 26.2649C37.8238 26.8176 37.2515 27.6254 37.2484 28.6899C37.2402 30.7035 37.3637 32.7176 37.4332 34.732ZM30.4406 31.2664L30.4328 31.2723C30.4273 31.3172 30.4418 31.3543 30.4765 31.3836L30.5988 31.6766C31.0332 32.8168 31.4496 33.9645 31.9062 35.0953C32.4512 36.4457 32.0742 36.3957 33.8015 36.2399L35.2297 35.9785C35.9769 35.9641 36.1715 35.591 36.1129 34.8637C35.9699 33.0957 35.9179 31.3203 35.8179 29.5485C35.6902 27.2895 36.5738 25.6777 38.6906 24.7195C39.4594 24.3715 40.1906 23.8363 40.7875 23.236C41.6953 22.3223 41.4371 20.9344 40.3289 20.2988L40.2336 21.0813C39.3922 19.7649 39.1484 18.4281 38.9285 17.0828L38.9058 16.3652C38.9402 16.3227 38.9441 16.2774 38.9164 16.2301L39.2597 13.6297L39.3926 13.6492L39.5859 14.4637C39.8637 13.9777 40.0922 13.6418 40.257 13.2781C40.9039 11.8469 40.3219 10.8895 38.7324 10.9102C37.7847 10.9223 36.818 11.0629 35.898 11.2961C33.4969 11.9051 31.5281 13.3406 29.5679 14.775C29.3722 14.9184 29.1672 15.0496 28.9664 15.1863L28.8734 15.0777L29.8906 13.6211L30.141 13.3289C30.1754 13.3067 30.1965 13.2754 30.2039 13.2348L34.0074 10.1879L31.6949 8.95431L31.6637 8.95939L31.4961 8.83556C28.8254 7.58282 25.9851 7.32736 23.1207 7.66954C21.55 7.85704 20.0265 8.43947 18.4816 8.84337C17.5719 9.19689 16.7066 9.61876 16.1168 10.2688L19.9183 13.3586L19.9168 13.3524L20.0539 13.541L21.1242 15.0836C19.916 14.407 18.8262 13.6356 17.7047 12.9129C15.9679 11.7942 14.0844 11.0461 12.0074 10.9C11.1281 10.8383 10.0886 10.7328 9.63162 11.6746C9.15857 12.6496 9.8031 13.5113 10.3465 14.3125C10.3668 14.3426 10.4301 14.3438 10.5004 14.3676L10.5883 13.6074C10.7636 13.9797 10.8719 14.3477 10.9148 14.7231C10.9992 15.4598 11.0476 16.2008 11.1113 16.9402C10.9679 17.6406 10.8742 18.3567 10.6672 19.0379C10.4558 19.7336 10.1336 20.3953 9.85974 21.0723L9.70388 21L9.65896 20.3035C8.40896 21.0656 8.33709 22.6277 9.53826 23.5856C10.264 24.1641 11.0933 24.6285 11.9183 25.0649C13.4703 25.8852 14.1758 27.1981 14.1512 28.886C14.1234 30.8289 14.0058 32.7711 13.8941 34.7121C13.834 35.7567 13.8027 35.7551 14.7519 35.977L16.3176 36.2445C16.8156 36.2043 17.4578 36.6641 17.7605 35.9246C18.3582 34.4656 18.9082 32.9871 19.4777 31.5168C19.5023 31.4817 19.514 31.4426 19.5133 31.3996L19.6582 31.0914L20.2379 29.9852L20.4109 30.0461C20.1519 32.6387 19.2387 35.0828 18.4605 37.6238C22.8 37.6238 27.0211 37.6242 31.2418 37.6215C31.3097 37.6215 31.3773 37.5891 31.4226 37.5774L29.3129 29.5762L29.5504 29.5031L30.3367 31.0906L30.4406 31.2664ZM35.3851 43.2231C33.7918 43.1442 33.2375 43.6129 32.8601 45.4109C33.8984 44.8598 34.8082 44.2391 35.3742 43.2137L35.3961 43.1598L35.3851 43.2231ZM40.0148 33.9895C38.6492 36.7887 36.0605 37.4277 33.3668 37.7348L34.6523 40.1867L34.4527 41.7938C36.6109 41.6602 38.5047 41.0125 39.723 39.1539C40.8574 37.4227 40.8078 35.5086 40.2055 33.5598L40.0148 33.9895ZM9.8492 33.7699C9.84138 33.7246 9.8406 33.6434 9.8242 33.6399C9.77498 33.6297 9.67459 33.6445 9.67263 33.6594C9.57029 34.4582 9.38435 35.2602 9.39802 36.0586C9.44568 38.8449 10.95 40.7477 13.6398 41.4856C14.2582 41.6551 14.9074 41.7129 15.5687 41.827L15.3246 40.1871L16.6508 37.7219C13.7984 37.4547 11.2074 36.6695 9.8492 33.7699ZM32.2008 43.5012L32.3547 43.218C32.584 42.6942 32.8519 42.1832 33.0359 41.6442C33.6281 39.9055 32.9601 38.9582 31.1207 38.8824C31.0008 38.8774 30.8808 38.8754 30.7609 38.8754C26.9215 38.875 23.082 38.8711 19.2429 38.8809C18.8633 38.8817 18.4754 38.9258 18.1058 39.0125C16.966 39.2801 16.5183 39.952 16.8187 41.0781C17.014 41.8113 17.3609 42.5043 17.6398 43.2156L17.7844 43.4805L17.8926 43.659C18.5172 44.4664 19.0164 45.4281 19.7887 46.0531C22.3277 48.1086 25.234 48.2781 28.2203 47.2367C30.0621 46.5942 31.3887 45.2953 32.2012 43.5016L32.2008 43.5012ZM39.7527 4.62345C36.9004 3.37657 33.9629 4.46798 32.2699 7.40548L33.2637 7.8879C34.5656 5.95353 36.3695 4.75392 38.6148 4.984C38.9332 5.01681 39.2793 4.78165 39.7527 4.62345ZM10.4324 4.74493C10.8562 4.82501 11.2808 4.97736 11.7039 4.97189C12.9793 4.9547 14.1398 5.26017 15.1023 6.109C15.7047 6.63986 16.2383 7.24884 16.8324 7.85353L17.739 7.38829C16.2113 4.58439 13.0656 3.35236 10.4324 4.74493ZM37.4308 6.13087C37.3105 6.14962 37.1051 6.16407 36.9094 6.21642C35.8976 6.48712 35.2808 7.19962 34.909 8.12423C34.7953 8.40665 34.7328 8.86915 34.8844 9.06564C35.1988 9.47345 35.4746 10.0332 36.2566 9.76876C36.7812 9.59142 36.9195 9.28829 36.9926 8.85001C37.1367 7.98517 37.2722 7.11876 37.4308 6.13087ZM12.5472 6.17032C12.6644 6.83361 12.7761 7.45978 12.8851 8.08595C12.9422 8.41525 12.9879 8.74611 13.05 9.07423C13.1804 9.75861 13.8387 9.93907 14.2492 9.80157C14.6808 9.65704 15.2226 9.09806 15.264 8.6754C15.3762 7.53282 13.759 6.16368 12.5472 6.17032ZM14.5789 43.2289C15.2125 44.1703 16.0527 44.8938 17.2804 45.4465C16.6156 44.2301 16.4082 42.7719 14.5789 43.2289Z" fill="#493310"/>
<path fill-rule="evenodd" clip-rule="evenodd" d="M11.111 16.941C11.0473 16.2012 10.9989 15.4605 10.9145 14.7238C10.8715 14.3484 10.7633 13.9805 10.5879 13.6082L10.5 14.3684C10.4297 14.3445 10.3664 14.3437 10.3461 14.3133C9.80277 13.5121 9.15824 12.6504 9.63129 11.6754C10.0883 10.7336 11.1278 10.8391 12.0071 10.9008C14.084 11.0473 15.968 11.7953 17.7043 12.9137C18.8258 13.6363 19.9157 14.4078 21.1239 15.0844L20.0536 13.5418L19.9164 13.3535L19.9184 13.3598C19.6825 12.7992 19.4868 12.218 19.2024 11.6832C18.7274 10.7891 18.0516 9.96211 18.4813 8.84414C20.0262 8.43984 21.5496 7.85781 23.1203 7.67031C25.9848 7.32812 28.825 7.58359 31.4957 8.83671L31.6633 8.96015L31.6938 8.95546C31.7282 9.9414 31.35 10.7816 30.8532 11.6105C30.5571 12.1047 30.4149 12.6906 30.2036 13.2355C30.1961 13.2762 30.175 13.3074 30.1411 13.3301L29.8903 13.6219L28.8731 15.0785L28.9661 15.1871C29.1668 15.0504 29.3719 14.9191 29.5676 14.7758C31.5278 13.3414 33.4961 11.9055 35.8977 11.2969C36.8176 11.0637 37.7848 10.923 38.7321 10.9109C40.3215 10.8902 40.9036 11.8477 40.2567 13.2789C40.0918 13.643 39.8633 13.9789 39.5856 14.4644L39.3922 13.65L39.2594 13.6305L38.9161 16.2309L38.8836 16.2707L38.9051 16.3664L38.9278 17.084C38.8516 17.2883 38.7102 17.4922 38.7086 17.6969C38.6942 19.3602 38.8422 20.9867 40.118 22.4488C39.1067 22.9629 38.2121 23.4578 37.284 23.8785C36.4422 24.2605 35.568 24.6019 35.2657 25.5711C35.0149 26.3758 34.8711 27.2137 34.6813 28.0297L34.2137 26.7328C34.0774 29.8949 34.2219 32.9902 35.2282 35.9797L33.8 36.241C32.8461 34.7902 31.895 33.3379 30.9325 31.893C30.8649 31.7918 30.7114 31.748 30.5977 31.6777L30.4754 31.3848L30.5368 31.298L30.4317 31.2734L30.4399 31.2676L30.3352 31.0926L29.5489 29.5051L29.3114 29.5781C30.0141 32.2422 30.7164 34.9066 31.4211 37.5793C31.3758 37.591 31.3078 37.6234 31.2403 37.6234C27.0196 37.6262 22.7989 37.6258 18.459 37.6258C19.2368 35.0844 20.1504 32.6406 20.4094 30.048L20.2364 29.9871L19.6563 31.0934L19.5114 31.4016C19.5121 31.4445 19.5004 31.4832 19.4762 31.5187C19.3356 31.6309 19.1563 31.7172 19.0602 31.8594C18.3571 32.9027 17.661 33.9516 16.9836 35.0121C16.7325 35.4055 16.5368 35.834 16.3161 36.2465L14.7504 35.9789C15.8032 32.9969 15.934 29.9078 15.7946 26.7828L15.2993 28.0766C15.1934 25.9625 14.5641 24.368 12.3317 23.7156C11.4805 23.4668 10.7407 22.8379 10.1274 22.4848C10.5098 21.5141 10.9446 20.7937 11.0582 20.0254C11.209 19.0164 11.1055 17.9703 11.111 16.941ZM27.2938 17.1L27.4387 16.9504L27.7918 16.541C26.8746 16.6309 25.9817 16.7902 25.0895 16.7855C24.1895 16.7805 23.2899 16.6125 22.3903 16.5164L22.2028 16.4641L22.3903 16.516L22.6778 17.0937C24.2817 18.9168 25.6215 18.9531 27.2348 17.216C27.2661 17.1824 27.2813 17.134 27.3039 17.0926L27.2938 17.1ZM18.3481 26.7621L20.0684 25.6988C20.4547 24.9395 20.9157 24.2059 21.1942 23.409C21.327 23.0281 21.3993 22.8187 21.8137 22.7098C22.7235 22.4715 23.1911 21.8574 23.168 21.0656L22.2567 21.177C21.2817 20.6234 20.543 19.8543 19.9434 18.898C19.6098 18.366 19.0907 17.9309 18.5985 17.5203C17.5496 16.6453 16.2364 16.4461 14.9532 16.4187C14.1649 16.4023 13.3684 16.7773 12.5758 16.9766C12.5516 17.0004 12.525 17.0027 12.4961 16.9855L12.2871 17.0746L12.2469 17.1332C12.2434 17.1527 12.2536 17.1902 12.2664 17.1949C12.5516 17.2961 12.8379 17.3941 13.1743 17.5105C12.4098 18.4703 12.5059 19.382 13.0899 20.3789L13.393 19.3113L13.5391 19.325L13.6129 20.0797L13.7094 20.4145L13.7657 20.6383C13.6864 23.057 15.8493 24.7988 19.0653 24.7395L18.35 26.7645L18.3172 26.8227L18.3481 26.7621ZM31.6274 26.7617L31.6844 26.7961L31.625 26.7641L30.9352 24.7168C34.6832 25.0871 36.2211 22.5391 36.3563 20.2117L36.5043 19.3332L36.6262 19.3379L36.9075 20.3836C37.4739 19.3766 37.6196 18.459 36.827 17.5297L37.7676 17.1602L37.3762 17.0066C37.1848 16.8902 37.0016 16.6902 36.8012 16.6719C35.9371 16.5906 35.0641 16.4848 34.2024 16.5324C32.4907 16.627 31.0817 17.373 30.1164 18.816C29.4746 19.7754 28.7832 20.6582 27.7192 21.1766L26.7336 21.0648C26.8911 22.0031 27.4258 22.491 28.2481 22.7512C28.4426 22.8129 28.6395 23.0219 28.7352 23.2137C29.1461 24.0324 29.52 24.8699 29.9071 25.7008L31.6274 26.7617Z" fill="#F5A900"/>
<path fill-rule="evenodd" clip-rule="evenodd" d="M17.6391 43.2157C17.3602 42.5047 17.0133 41.8117 16.818 41.0782C16.5176 39.952 16.9652 39.2801 18.1051 39.0125C18.4746 38.9258 18.8625 38.8817 19.2422 38.8809C23.0816 38.8715 26.9211 38.875 30.7602 38.8754C30.8801 38.8754 31.0004 38.8774 31.1199 38.8824C32.9594 38.9578 33.6274 39.9055 33.0352 41.6442C32.8516 42.1832 32.5836 42.6942 32.3539 43.218L32.2 43.5012L32.1996 43.502C31.7031 43.8246 31.2199 44.1703 30.7074 44.4653C29.4188 45.2047 28.0145 45.5399 26.5434 45.7164C24.5313 45.9582 22.5684 45.8051 20.6856 45.0832C19.7149 44.711 18.8203 44.1399 17.8914 43.659L17.7832 43.4805L17.6391 43.2157ZM31.4664 42.0539L31.6246 41.7696C32.0645 40.6367 31.8676 40.3297 30.6703 40.3157C29.7813 40.3059 28.8914 40.2985 28.0024 40.318C27.1395 40.3367 26.9477 40.6157 27.1777 41.4418C27.2816 41.8731 27.3258 42.3313 27.502 42.7309C27.95 43.7492 28.7602 44.3176 29.4774 44.1977C30.4535 44.0348 31.3289 43.0906 31.4707 42.0481L31.4664 42.0539ZM18.5051 42.0531L18.5031 42.0496C18.666 43.1324 19.3207 43.7989 20.3274 44.125C21.0371 44.3547 21.6617 44.0344 22.0067 43.4805C22.3832 42.8754 22.5512 42.1406 22.8102 41.4621C23.057 40.6168 22.8828 40.3465 22.0234 40.3211C21.2559 40.2981 20.4871 40.3102 19.7188 40.3164C18.0695 40.3293 18.0375 40.3692 18.3555 41.9043L18.5051 42.0531Z" fill="#F5A800"/>
<path fill-rule="evenodd" clip-rule="evenodd" d="M11.1109 16.941C11.1054 17.9703 11.209 19.0164 11.0594 20.0242C10.9453 20.7926 10.5105 21.5129 10.1285 22.4836C10.7418 22.8367 11.4816 23.4657 12.3328 23.7145C14.5648 24.3668 15.1945 25.9614 15.3004 28.0754L15.7957 26.7817C15.9347 29.9067 15.8039 32.9953 14.7515 35.9778C13.8023 35.7563 13.8336 35.7578 13.8937 34.7129C14.0058 32.7723 14.123 30.8297 14.1508 28.8867C14.1754 27.1989 13.4699 25.886 11.9179 25.0656C11.0929 24.6297 10.264 24.1653 9.53787 23.5864C8.3367 22.6282 8.40857 21.0664 9.65857 20.3043L9.70349 21.0008L9.85935 21.0731C10.1332 20.3965 10.4554 19.7344 10.6668 19.0387C10.8738 18.3574 10.9676 17.6418 11.1109 16.941ZM35.2293 35.9789C34.223 32.9891 34.0785 29.8938 34.2148 26.7321L34.6824 28.0289C34.8719 27.2125 35.016 26.3746 35.2668 25.5703C35.5691 24.6016 36.4433 24.2598 37.2851 23.8778C38.2129 23.4571 39.1078 22.9625 40.1191 22.4481C38.8433 20.986 38.6953 19.3594 38.7097 17.6961C38.7113 17.4914 38.8527 17.2875 38.9289 17.0832C39.1488 18.4285 39.3926 19.7657 40.234 21.0817L40.3293 20.2992C41.4371 20.9348 41.6957 22.3227 40.7879 23.2364C40.1914 23.8371 39.4601 24.3719 38.691 24.7199C36.5738 25.6782 35.6902 27.2899 35.8183 29.5489C35.9183 31.3207 35.9703 33.0961 36.1133 34.8641C36.1711 35.5914 35.9765 35.9645 35.2293 35.9789ZM40.359 21.1715L40.339 21.2098L40.3691 21.2137L40.359 21.1715Z" fill="#E08700"/>
<path fill-rule="evenodd" clip-rule="evenodd" d="M17.8922 43.659C18.8211 44.1398 19.7156 44.7109 20.6864 45.0832C22.5688 45.8051 24.5321 45.9582 26.5442 45.7164C28.0153 45.5398 29.4196 45.2047 30.7082 44.4652C31.2211 44.1707 31.7039 43.8246 32.2004 43.502C31.3879 45.2957 30.0613 46.5945 28.2196 47.2371C25.2332 48.2785 22.327 48.1086 19.7879 46.0535C19.016 45.4281 18.5164 44.4664 17.8922 43.659Z" fill="#E08600"/>
<path fill-rule="evenodd" clip-rule="evenodd" d="M9.84928 33.7699C11.2079 36.6695 13.7985 37.4547 16.6508 37.7222L15.3247 40.1875C11.9126 39.9086 9.71413 37.332 9.84928 33.7699ZM34.6524 40.1871C34.227 39.375 33.8016 38.5636 33.3669 37.7351C36.0606 37.4277 38.6493 36.7886 40.0149 33.9898C40.0579 34.1672 40.1434 34.3457 40.1372 34.5215C40.0364 37.4531 38.0258 39.9219 34.6524 40.1871Z" fill="white"/>
<path fill-rule="evenodd" clip-rule="evenodd" d="M9.84923 33.7699C9.71407 37.332 11.9125 39.9082 15.3246 40.1871L15.5688 41.8269C14.907 41.7129 14.2582 41.6551 13.6398 41.4855C10.95 40.748 9.44571 38.8449 9.39805 36.0586C9.38438 35.2605 9.57032 34.4586 9.67266 33.6594C9.67462 33.6441 9.77501 33.6293 9.82422 33.6398C9.84063 33.6433 9.84141 33.7246 9.84923 33.7699ZM34.6523 40.1871C38.0258 39.9219 40.0363 37.4531 40.1375 34.5211C40.1438 34.3453 40.0578 34.1668 40.0152 33.9894L40.2059 33.5598C40.8082 35.5086 40.8578 37.4226 39.7234 39.1539C38.5051 41.0129 36.6113 41.6601 34.4531 41.7937L34.6523 40.1871Z" fill="#C7C6C6"/>
<path fill-rule="evenodd" clip-rule="evenodd" d="M39.7527 4.6234C39.2792 4.7816 38.9332 5.01676 38.6148 4.98395C36.3695 4.75387 34.566 5.95348 33.2636 7.88785L32.2699 7.40543C33.9628 4.46793 36.9003 3.37653 39.7527 4.6234ZM10.4324 4.74489C13.0656 3.35231 16.2113 4.58434 17.739 7.38785L16.8324 7.85309C16.2382 7.2484 15.7042 6.63981 15.1023 6.10856C14.1398 5.26012 12.9792 4.95426 11.7039 4.97145C11.2808 4.97731 10.8562 4.82496 10.4324 4.74489Z" fill="#F0A500"/>
<path fill-rule="evenodd" clip-rule="evenodd" d="M37.4308 6.13086C37.2719 7.11875 37.1367 7.98516 36.9926 8.85C36.9195 9.28828 36.7812 9.59141 36.2566 9.76875C35.475 10.0332 35.1988 9.47344 34.8844 9.06562C34.7328 8.86914 34.7949 8.40664 34.909 8.12422C35.2804 7.19961 35.8972 6.48711 36.9094 6.21641C37.1051 6.16406 37.3105 6.14961 37.4308 6.13086ZM12.5472 6.17031C13.759 6.16367 15.3761 7.53242 15.264 8.67578C15.2226 9.09844 14.6808 9.65742 14.2492 9.80195C13.8386 9.93945 13.1804 9.75898 13.05 9.07461C12.9879 8.74648 12.9422 8.41523 12.8851 8.08633C12.7761 7.45977 12.6644 6.83359 12.5472 6.17031Z" fill="#DE8500"/>
<path fill-rule="evenodd" clip-rule="evenodd" d="M18.4816 8.84412C18.052 9.96209 18.7277 10.789 19.2027 11.6832C19.4867 12.2179 19.6828 12.7988 19.9188 13.3597C18.6676 12.3429 17.4164 11.3261 16.1172 10.2699C16.7063 9.61951 17.5715 9.19763 18.4816 8.84412Z" fill="#E08600"/>
<path fill-rule="evenodd" clip-rule="evenodd" d="M30.2035 13.2355C30.4148 12.6906 30.557 12.1047 30.8531 11.6105C31.35 10.7812 31.7281 9.94138 31.6937 8.95544C32.4754 9.37146 33.2562 9.78787 34.007 10.1886C32.6445 11.2797 31.4242 12.2578 30.2035 13.2355ZM30.5988 31.6769C30.7125 31.7472 30.866 31.791 30.9336 31.8922C31.8961 33.3371 32.8472 34.7894 33.8011 36.2402C32.0738 36.3961 32.4508 36.4461 31.9058 35.0957C31.4496 33.9648 31.0332 32.8172 30.5988 31.6769ZM16.3168 36.2449C16.5379 35.8324 16.7332 35.4039 16.9844 35.0105C17.6617 33.9504 18.3578 32.9015 19.0609 31.8578C19.157 31.7156 19.3363 31.6293 19.4769 31.5172C18.907 32.9875 18.357 34.466 17.7597 35.925C17.457 36.6644 16.8148 36.2047 16.3168 36.2449Z" fill="#DE8600"/>
<path fill-rule="evenodd" clip-rule="evenodd" d="M14.5789 43.2289C16.4082 42.7719 16.6156 44.2301 17.2804 45.4465C16.0527 44.8933 15.2121 44.1703 14.5789 43.2289ZM35.3742 43.2137C34.8082 44.2387 33.8984 44.8598 32.8601 45.4109C33.2378 43.6129 33.7921 43.1441 35.3851 43.223L35.3742 43.2137ZM35.3851 43.223L35.3957 43.1594L35.3738 43.2137L35.3851 43.223Z" fill="#ECA200"/>
<path fill-rule="evenodd" clip-rule="evenodd" d="M30.4328 31.2723L30.5378 31.2969L30.4765 31.3836C30.4417 31.3547 30.4273 31.3172 30.4328 31.2723Z" fill="#DE8600"/>
<path fill-rule="evenodd" clip-rule="evenodd" d="M38.9059 16.3656L38.8844 16.2699L38.9168 16.2301C38.9442 16.2778 38.9406 16.3227 38.9059 16.3656Z" fill="#E08700"/>
<path fill-rule="evenodd" clip-rule="evenodd" d="M29.9074 25.7008C29.5203 24.8703 29.1465 24.0324 28.7356 23.2137C28.6399 23.0222 28.443 22.8129 28.2485 22.7512C27.4262 22.4906 26.8914 22.0027 26.734 21.0648L27.7196 21.1765C27.9047 21.1894 28.0938 21.234 28.2739 21.2097C29.136 21.093 29.7246 20.5469 30.2977 19.943C32.218 17.918 34.4707 16.6668 37.3774 17.007L37.7688 17.1605L36.8281 17.5301C37.6203 18.4594 37.475 19.3769 36.9086 20.384L36.6274 19.3383L36.5055 19.3336L36.3574 20.2125C35.9442 21.1832 35.5508 22.1633 34.5426 22.7078C33.0754 23.5 31.6024 23.8465 30.1184 22.7937C29.4844 23.757 29.859 24.7394 29.9074 25.7008ZM34.7641 20.2555V18.4476C33.243 19.343 31.9446 20.2133 30.9039 21.4219L30.4746 21.9406C31.927 23.0297 34.7672 22.3133 34.7641 20.2555Z" fill="#49330E"/>
<path fill-rule="evenodd" clip-rule="evenodd" d="M13.7652 20.6379L13.7089 20.4141L13.6124 20.0793L13.5386 19.3246L13.3925 19.311L13.0894 20.3785C12.5054 19.3817 12.4093 18.4699 13.1738 17.5102C12.8374 17.3942 12.5511 17.2961 12.266 17.1946C12.2531 17.1899 12.2425 17.1524 12.2464 17.1328L12.2867 17.0742L12.4956 16.9852C12.5242 17.0024 12.5511 17 12.5753 16.9762C13.6636 17.0957 14.7859 17.0879 15.8328 17.3641C17.4769 17.7981 18.7464 18.8875 19.8824 20.1301C20.514 20.8207 21.2398 21.3391 22.2562 21.1766L23.1675 21.0653C23.1906 21.8574 22.723 22.4711 21.8132 22.7094C21.3988 22.8184 21.3265 23.0278 21.1937 23.4086C20.9152 24.2059 20.4542 24.9391 20.0679 25.6981C20.1644 24.7254 20.4953 23.7348 19.8562 22.7789C19.0828 23.3567 18.2394 23.5684 17.3273 23.4047C15.664 23.1055 14.4324 22.2305 13.7652 20.6379ZM19.0824 21.4086C18.041 20.2035 16.7456 19.3317 15.2261 18.4465V20.2531C15.2503 22.3547 18.1203 23.0211 19.4937 21.9582C19.4527 21.8828 19.4183 21.7957 19.3632 21.725C19.2769 21.6137 19.1765 21.5133 19.0824 21.4086Z" fill="#49330F"/>
<path fill-rule="evenodd" clip-rule="evenodd" d="M29.9074 25.7008C29.8589 24.7391 29.4843 23.757 30.1179 22.7933C31.6019 23.8457 33.0749 23.4996 34.5421 22.7074C35.5503 22.1625 35.9437 21.1828 36.357 20.2121C36.2218 22.5391 34.6835 25.0871 30.9359 24.7168L31.6257 26.7641L31.6277 26.7617L29.9074 25.7008ZM13.7652 20.6379C14.4324 22.2305 15.6636 23.1055 17.3277 23.4047C18.2398 23.5687 19.0831 23.3566 19.8566 22.7789C20.4952 23.7348 20.1644 24.7254 20.0683 25.698L18.348 26.7621L18.3499 26.7641L19.0652 24.7391C15.8492 24.7984 13.6859 23.0566 13.7652 20.6379Z" fill="#E08700"/>
<path fill-rule="evenodd" clip-rule="evenodd" d="M22.2567 21.1765C21.2403 21.339 20.5145 20.8207 19.8828 20.1301C18.7469 18.8875 17.4774 17.798 15.8332 17.364C14.7864 17.0875 13.6641 17.0953 12.5758 16.9761C13.3684 16.7769 14.1649 16.4015 14.9528 16.4183C16.236 16.4457 17.5492 16.6449 18.5981 17.5199C19.0907 17.9304 19.6094 18.3656 19.943 18.8976C20.543 19.8539 21.2817 20.623 22.2567 21.1765Z" fill="#DE8600"/>
<path fill-rule="evenodd" clip-rule="evenodd" d="M37.3766 17.007C34.4704 16.6668 32.2172 17.9179 30.2969 19.9429C29.7243 20.5469 29.1352 21.0929 28.2731 21.2097C28.093 21.2344 27.904 21.1894 27.7188 21.1765C28.7829 20.6582 29.4747 19.7754 30.1161 18.816C31.0813 17.373 32.4903 16.6269 34.202 16.5324C35.0641 16.4847 35.9368 16.591 36.8008 16.6719C37.002 16.691 37.1852 16.8906 37.3766 17.007ZM22.6774 17.0937L22.3899 16.516V16.5164C23.2895 16.6129 24.1887 16.7804 25.0891 16.7855C25.9813 16.7902 26.8743 16.6308 27.7915 16.541L27.4387 16.9504L27.2938 17.1L27.3036 17.0918C26.4028 17.2433 25.5043 17.4902 24.6 17.5136C23.9633 17.5308 23.3184 17.2445 22.6774 17.0937Z" fill="#DF8600"/>
<path fill-rule="evenodd" clip-rule="evenodd" d="M22.6774 17.0937C23.3184 17.2449 23.9633 17.5308 24.5996 17.514C25.5039 17.4902 26.4024 17.2437 27.3032 17.0922C27.2805 17.1336 27.2653 17.182 27.234 17.2156C25.6211 18.9531 24.2817 18.9168 22.6774 17.0937Z" fill="#52380B"/>
<path fill-rule="evenodd" clip-rule="evenodd" d="M27.1777 41.4418C26.9476 40.6156 27.1394 40.3367 28.0023 40.318C28.8914 40.2984 29.7812 40.3059 30.6703 40.3156C31.8676 40.3297 32.0648 40.6367 31.6246 41.7695L31.4664 42.0539L31.4703 42.048C31.2625 42.273 31.0605 42.5039 30.8453 42.7223C29.8695 43.7129 28.7992 43.6488 27.9547 42.543C27.6824 42.1863 27.4359 41.8098 27.1777 41.4418Z" fill="#47310D"/>
<path fill-rule="evenodd" clip-rule="evenodd" d="M18.3555 41.9039C18.0375 40.3683 18.0696 40.3285 19.7188 40.316C20.4871 40.3097 21.2559 40.2976 22.0235 40.3207C22.8828 40.3461 23.0571 40.6168 22.8102 41.4617C22.5188 41.8711 22.2422 42.2922 21.9328 42.6879C21.209 43.6133 20.1813 43.6715 19.3176 42.848C19.0426 42.5859 18.7742 42.3156 18.5028 42.0496L18.5043 42.0531L18.3555 41.9039Z" fill="#47310E"/>
<path fill-rule="evenodd" clip-rule="evenodd" d="M18.5031 42.0496C18.7745 42.316 19.0429 42.586 19.3179 42.8481C20.1816 43.6711 21.2093 43.6133 21.9331 42.6879C22.2425 42.2922 22.5191 41.8711 22.8105 41.4617C22.5515 42.1402 22.3839 42.875 22.007 43.4801C21.6616 44.034 21.0374 44.3543 20.3277 44.1246C19.3206 43.7988 18.6659 43.1324 18.5031 42.0496Z" fill="#DC8400"/>
<path fill-rule="evenodd" clip-rule="evenodd" d="M27.1777 41.4418C27.4359 41.8094 27.6824 42.1859 27.9547 42.5429C28.7992 43.6488 29.8695 43.7129 30.8453 42.7222C31.0605 42.5039 31.2621 42.273 31.4703 42.048C31.3285 43.0906 30.4531 44.0347 29.477 44.1976C28.7602 44.3176 27.9496 43.7492 27.5016 42.7308C27.3262 42.3312 27.2816 41.873 27.1777 41.4418Z" fill="#DE8500"/>
<path fill-rule="evenodd" clip-rule="evenodd" d="M40.359 21.1715L40.3692 21.2137L40.3391 21.2098L40.359 21.1715Z" fill="#493310"/>
<path fill-rule="evenodd" clip-rule="evenodd" d="M30.9039 21.4223C31.9446 20.2133 33.2434 19.343 34.7641 18.4481V20.2559C34.1367 21.0555 33.4278 21.7695 32.3356 21.7684C31.8582 21.7672 31.3809 21.5442 30.9039 21.4223Z" fill="white"/>
<path fill-rule="evenodd" clip-rule="evenodd" d="M30.9039 21.4223C31.3812 21.5442 31.8582 21.7672 32.3355 21.768C33.4277 21.7696 34.1367 21.0555 34.7641 20.2555C34.7672 22.3133 31.927 23.0297 30.4746 21.9406L30.9039 21.4223Z" fill="#C5C4C3"/>
<path fill-rule="evenodd" clip-rule="evenodd" d="M15.2262 20.2527V18.4461C16.7453 19.3317 18.041 20.2031 19.0824 21.4082C18.4824 21.9492 17.2653 21.966 16.3864 21.3625C15.9508 21.0637 15.6098 20.627 15.2262 20.2527Z" fill="white"/>
<path fill-rule="evenodd" clip-rule="evenodd" d="M15.2262 20.2527C15.6098 20.627 15.9508 21.0641 16.3864 21.3629C17.2653 21.9664 18.4824 21.9496 19.0824 21.4086C19.177 21.5137 19.2774 21.6137 19.3633 21.725C19.4184 21.7957 19.4528 21.8824 19.4938 21.9582C18.1203 23.0207 15.2504 22.3543 15.2262 20.2527Z" fill="#C5C4C3"/>
</svg>
