<svg width="50" height="50" viewBox="0 0 50 50" fill="none" xmlns="http://www.w3.org/2000/svg">
<path fill-rule="evenodd" clip-rule="evenodd" d="M14.4395 13.8512C14.7821 17.4574 15.1219 21.0434 15.4696 24.7098C16.0364 23.7352 16.4465 22.8004 17.0653 22.0348C17.6415 21.3215 18.3676 20.6633 19.1579 20.2074C20.1895 19.6121 21.5422 20.1727 21.8766 21.2285C21.9665 21.5117 21.752 21.8914 21.677 22.227C21.4247 22.0938 21.0993 22.0203 20.9344 21.8164C20.234 20.9504 19.8122 20.8481 19.0375 21.5965C17.5926 22.9934 16.7801 24.7434 16.47 26.7102C16.4102 27.0906 16.6481 27.5176 16.7485 27.9231C17.1434 27.7871 17.602 27.7371 17.9211 27.4996C18.9586 26.7274 19.6016 25.677 19.9563 24.4215C20.0333 24.1496 20.4504 23.9742 20.7114 23.7543C20.8364 24.0114 21.1215 24.3141 21.0618 24.5176C20.5122 26.4082 19.9157 28.2867 19.2899 30.1539C19.2266 30.343 18.8793 30.4371 18.6633 30.5754C18.5762 30.327 18.393 30.0668 18.4223 29.8328C18.4879 29.3024 18.6586 28.7848 18.7778 28.2989L15.9497 29.6008C16.1079 31.4063 16.2719 33.4317 16.4665 35.4543C16.6157 36.9989 16.8684 37.3988 18.3895 37.6918C20.1645 38.0336 21.9727 38.252 23.777 38.3848C26.443 38.5813 29.0856 38.3383 31.6793 37.641C32.645 37.3817 33.0301 36.7465 33.0993 35.7985C33.1625 34.9254 33.304 34.0578 33.402 33.1871C33.5946 31.4719 33.7817 29.7563 33.9786 27.9692C33.3274 28.3817 32.8153 28.8434 32.2165 29.0391C31.7805 29.1817 31.2305 28.9731 30.7309 28.9207C30.8266 28.4621 30.8208 27.9453 31.0418 27.5586C31.402 26.9266 31.9106 26.3785 32.3559 25.7949L32.1641 25.5641C31.845 25.7528 31.4485 25.8766 31.2215 26.1442C30.7598 26.6887 30.3079 27.2715 29.9989 27.9098C29.4817 28.9781 29.0875 30.1059 28.6247 31.2012C28.4235 31.6762 28.25 32.4028 27.5762 32.1254C26.8555 31.8281 27.3626 31.1934 27.5317 30.7418C27.8008 30.0215 28.1563 29.3332 28.3969 28.8035C27.7149 28.8848 27.0235 28.9828 26.329 29.0434C26.0352 29.0684 25.686 28.9074 25.4458 29.016C24.6469 29.377 24.1407 29.2321 23.9747 28.3477C23.6047 28.5879 23.2915 28.9133 22.9223 29.0008C22.4743 29.1074 21.8665 29.1774 21.5383 28.9535C21.2754 28.7742 21.1797 28.1004 21.2696 27.7051C21.4481 26.9192 21.7817 26.1637 22.0985 25.4164C22.2946 24.9535 22.4918 24.2145 23.1536 24.5364C23.8075 24.8539 23.2137 25.3899 23.0629 25.8199C22.829 26.4848 22.5907 27.1485 22.3547 27.8125L22.7297 28.0391C23.0868 27.7289 23.5317 27.4762 23.7817 27.0957C24.1911 26.4739 24.4383 25.7473 24.8258 25.109C24.9864 24.8446 25.3321 24.693 25.5942 24.4903C25.6473 24.827 25.7747 25.1731 25.7325 25.4981C25.6907 25.8266 25.4598 26.127 25.3493 26.452C25.1833 26.9387 25.0493 27.4363 24.8805 28.0024C25.6786 28.0328 26.0204 27.6969 26.2458 27.1043C26.959 25.2321 27.6801 23.3617 28.4641 21.5184C28.5981 21.2028 29.0536 21.0246 29.361 20.7824C29.3965 21.1629 29.5661 21.5942 29.4454 21.9149C28.8028 23.6137 28.0813 25.2821 27.4032 26.9676C27.2887 27.2516 27.252 27.5668 27.1797 27.8676C28.3747 27.3305 29.3719 26.7367 29.736 25.4668C29.8251 25.1582 30.1899 24.9289 30.4278 24.6629L30.9809 25.2489C31.1489 25.1074 31.3028 24.9465 31.4852 24.8289C32.0594 24.459 32.6778 24.1328 33.2833 24.7059C33.9098 25.2985 33.4356 25.8758 33.1083 26.3883C32.752 26.9473 32.3157 27.4547 31.9141 27.9844C32.8172 27.4024 34.0504 27.1414 34.2145 25.8836C34.6145 22.8114 34.9661 19.7328 35.3227 16.6551C35.4286 15.7442 35.4852 14.8274 35.5676 13.8781C28.4543 15.6004 21.4938 15.611 14.4395 13.8512ZM17.4926 37.8235C17.8352 38.7285 18.3555 39.6176 18.4918 40.5621C18.7797 42.5727 18.8528 44.6137 19.0567 46.6379C19.0864 46.9328 19.2774 47.3379 19.5157 47.4676C23.0235 49.3739 26.5653 49.7043 30.1442 47.6196C30.6782 47.3086 30.777 46.8981 30.8461 46.3207C31.1809 43.5156 30.4356 40.5403 32.229 37.8989C27.2071 39.1446 22.3059 39.1832 17.4926 37.8235ZM29.5985 14.3547C31.3024 14.1903 32.9856 13.7903 34.6708 13.4598C34.9883 13.3977 35.2704 13.1559 35.5688 12.9969C35.1754 12.6512 34.8352 12.4848 34.4797 12.443C32.7102 12.234 30.9344 12.0731 29.1661 11.8539C28.8989 11.8207 28.4219 11.491 28.4418 11.4309C28.9579 9.87619 28.9325 8.11643 30.1036 6.80627C31.5836 5.15002 33.079 3.50823 34.5629 1.86565C33.459 0.678148 33.4442 0.676585 32.4438 1.71604C31.8782 2.30354 31.3614 2.94651 30.7477 3.47854C28.477 5.44651 26.8821 7.77737 26.5711 10.8504C26.4997 11.5555 26.1126 11.8102 25.3723 11.8211C22.9286 11.8567 20.4821 11.9239 18.0438 12.0844C16.8356 12.1637 15.6422 12.4739 14.4418 12.6793L14.4309 13.1281C15.1821 13.3598 15.9188 13.6641 16.686 13.8113C20.961 14.6309 25.2762 14.7715 29.5985 14.3547ZM28.2329 13.2813C27.2653 14.0625 26.4657 14.0625 25.6934 13.2813H28.2329Z" fill="#EB4A4B"/>
</svg>
