<svg width="50" height="50" viewBox="0 0 50 50" fill="none" xmlns="http://www.w3.org/2000/svg">
<path d="M26.7539 20.5859H23.0664L22.0703 19.3047V9.25781H27.6875V19.3047L26.7539 20.5859Z" fill="#8A4182"/>
<path d="M21.7656 21.5234L20.625 25.0313L19.1016 25.582L9.54297 22.4766L11.2812 17.1367L20.8359 20.2383L21.7656 21.5234Z" fill="#8A4182"/>
<path d="M21.1094 26.4609L24.0938 28.6289L24.1445 30.2461L18.2422 38.3789L13.6953 35.0781L19.6055 26.9453L21.1094 26.4609Z" fill="#8A4182"/>
<path d="M25.6875 28.6445L28.6758 26.4766L30.2305 26.9297L36.1367 35.0586L31.5937 38.3594L25.6875 30.2305V28.6445Z" fill="#8A4182"/>
<path d="M29.2344 25.0898L28.0938 21.5781L29.0039 20.2383L38.5586 17.1367L40.2969 22.4766L30.7383 25.582L29.2344 25.0898Z" fill="#8A4182"/>
<path d="M25 0.550781C20.1644 0.550781 15.4374 1.9847 11.4168 4.67122C7.3961 7.35773 4.26238 11.1762 2.41188 15.6437C0.561375 20.1112 0.0771986 25.0271 1.02058 29.7698C1.96396 34.5125 4.29252 38.8689 7.7118 42.2882C11.1311 45.7075 15.4875 48.0361 20.2302 48.9794C24.9729 49.9228 29.8888 49.4386 34.3563 47.5881C38.8238 45.7376 42.6423 42.6039 45.3288 38.5833C48.0153 34.5626 49.4492 29.8356 49.4492 25C49.4492 18.5157 46.8733 12.2969 42.2882 7.71179C37.7031 3.12667 31.4843 0.550781 25 0.550781ZM24.8672 44.1055C21.0429 44.1055 17.3045 42.9714 14.1247 40.8468C10.9449 38.7221 8.46661 35.7023 7.00312 32.1691C5.53963 28.6359 5.15671 24.7481 5.9028 20.9973C6.64888 17.2465 8.49045 13.8011 11.1946 11.097C13.8988 8.39278 17.3441 6.55121 21.0949 5.80513C24.8457 5.05905 28.7336 5.44196 32.2667 6.90546C35.7999 8.36895 38.8198 10.8473 40.9444 14.0271C43.0691 17.2068 44.2031 20.9452 44.2031 24.7695C44.2037 27.3091 43.7039 29.8239 42.7324 32.1703C41.7609 34.5167 40.3367 36.6487 38.5412 38.4446C36.7456 40.2406 34.6138 41.6652 32.2676 42.6371C29.9214 43.6091 27.4068 44.1094 24.8672 44.1094V44.1055Z" fill="#8A4182"/>
<path d="M25.5859 32.418H24.0547V40.0391H25.5859V32.418Z" fill="#8A4182"/>
<path d="M32.8316 26.2584L32.3584 27.7148L39.6065 30.0698L40.0797 28.6135L32.8316 26.2584Z" fill="#8A4182"/>
<path d="M29.1336 17.4837L30.3724 18.3837L34.852 12.2181L33.6132 11.3181L29.1336 17.4837Z" fill="#8A4182"/>
<path d="M19.6018 18.3837L20.8406 17.4836L16.361 11.318L15.1222 12.2181L19.6018 18.3837Z" fill="#8A4182"/>
<path d="M17.4244 27.7158L16.9512 26.2595L9.70308 28.6145L10.1763 30.0708L17.4244 27.7158Z" fill="#8A4182"/>
</svg>
