<svg width="50" height="50" viewBox="0 0 50 50" fill="none" xmlns="http://www.w3.org/2000/svg">
<g clip-path="url(#clip0)">
<path d="M25.0005 33.1643L16.8362 25L25.0005 16.8357V0L1.68387 23.3167C1.23751 23.7632 0.986755 24.3687 0.986755 25C0.986755 25.6313 1.23751 26.2368 1.68387 26.6833L25.0005 50C25.0005 50 28.572 47.619 28.572 41.6667C28.3872 38.5079 27.1269 35.5075 25.0005 33.1643V33.1643Z" fill="#2684FF"/>
<path d="M18.1113 23.4131L18.2673 23.569L25.0006 16.8357V0L12.3804 12.619C13.3293 16.6505 15.3034 20.3686 18.1113 23.4131V23.4131Z" fill="#1D78F2"/>
<path d="M19.834 21.7679L19.953 21.8869L25.003 16.8369V0L14.4459 10.5548C15.1078 14.7386 16.981 18.6368 19.834 21.7679V21.7679Z" fill="#126AE5"/>
<path d="M25.0006 16.8357V0L16.6673 8.33333C16.8497 12.7562 18.6114 16.9672 21.6328 20.2024L25.0006 16.8357Z" fill="#0B60DA"/>
<path d="M19.0482 8.33333C19.0482 13.9833 23.1042 18.2988 23.3161 18.519L25.0006 16.8357V0L19.2601 5.74048C19.1178 6.59739 19.0469 7.46467 19.0482 8.33333V8.33333Z" fill="#0154CE"/>
<path d="M25.0006 16.8357L33.1637 25L25.0006 33.1643V50L48.3161 26.6833C48.7625 26.2368 49.0132 25.6313 49.0132 25C49.0132 24.3687 48.7625 23.7632 48.3161 23.3167L25.0006 0C25.0006 0 21.4292 2.38095 21.4292 8.33333C21.6139 11.4921 22.8743 14.4925 25.0006 16.8357V16.8357Z" fill="#2482FD"/>
<path d="M31.8887 26.5869L31.7328 26.431L25.0006 33.1643V50L37.6197 37.381C36.6707 33.3495 34.6967 29.6314 31.8887 26.5869V26.5869Z" fill="#1D78F2"/>
<path d="M30.1661 28.2321L30.047 28.1131L24.9982 33.1631V50L35.553 39.4452C34.891 35.2617 33.0183 31.3636 30.1661 28.2321V28.2321Z" fill="#126AE5"/>
<path d="M25.0006 33.1643V50L33.3339 41.6667C33.1513 37.2436 31.3891 33.0326 28.3673 29.7976L25.0006 33.1643Z" fill="#0B60DA"/>
<path d="M30.953 41.6667C30.953 36.0167 26.897 31.7012 26.6839 31.481L25.0006 33.1643V50L30.7411 44.2595C30.8829 43.4025 30.9538 42.5353 30.953 41.6667V41.6667Z" fill="#0154CE"/>
<path d="M25.0006 33.1643L16.8363 25H3.57202V28.5714L25.0006 50C25.0006 50 28.572 47.619 28.572 41.6667C28.3873 38.5079 27.127 35.5075 25.0006 33.1643V33.1643Z" fill="#2684FF"/>
</g>
<defs>
<clipPath id="clip0">
<rect width="50" height="50" fill="white"/>
</clipPath>
</defs>
</svg>
