<svg width="50" height="50" viewBox="0 0 50 50" fill="none" xmlns="http://www.w3.org/2000/svg">
<path d="M10.8429 7.97698C7.97102 12.1039 8.32844 17.4739 10.5226 21.8598L10.6831 22.1715L10.7859 22.3692L10.8499 22.4828L10.9644 22.6875C11.0324 22.8074 11.1023 22.9266 11.1738 23.0465L11.2933 23.2434C11.3726 23.3707 11.4534 23.4973 11.5363 23.6235L11.6398 23.7832C11.7542 23.9539 11.871 24.1239 11.9917 24.2914L12.0019 24.3043L12.0613 24.3844C12.1656 24.5282 12.273 24.6703 12.382 24.8114L12.5027 24.9649C12.5999 25.0871 12.6988 25.2082 12.7991 25.3297L12.9124 25.4649C13.0472 25.6235 13.1851 25.7821 13.3253 25.9367L13.3335 25.9453L13.3495 25.9629C13.4866 26.1125 13.6269 26.259 13.7695 26.4055L13.9038 26.541C14.014 26.652 14.1261 26.761 14.239 26.8696L14.3761 27C14.5273 27.1422 14.6796 27.2821 14.8355 27.418L14.8425 27.4242L14.9226 27.4922C15.0597 27.6114 15.1991 27.7285 15.3398 27.8446L15.5124 27.9824C15.6273 28.0742 15.7433 28.1653 15.8601 28.2543L16.0464 28.3953C16.1753 28.4903 16.3054 28.5836 16.4366 28.6754L16.5784 28.7762L16.6179 28.8043C16.7421 28.8903 16.8699 28.9727 16.9968 29.0551L17.1609 29.1645C17.3562 29.2875 17.5542 29.4098 17.7542 29.5278L17.9183 29.6203C18.0656 29.7051 18.2136 29.7887 18.3636 29.8699L18.6101 29.9973L18.9288 30.1629L19.0023 30.1985L19.1327 30.2614C19.2995 30.341 19.4679 30.4196 19.6378 30.4953L19.7445 30.543C19.939 30.6281 20.1355 30.7098 20.3335 30.7883L20.4773 30.8446C20.6605 30.9156 20.8464 30.9848 21.0331 31.0504L21.1031 31.0746C21.3077 31.1465 21.5148 31.2125 21.723 31.2778L21.8726 31.3223C22.0843 31.3864 22.2941 31.4621 22.5124 31.5028C36.4003 34.0352 40.4343 23.1574 40.4343 23.1574C37.046 27.5715 31.0324 28.7356 25.3343 27.4395C25.1183 27.3906 24.9089 27.3231 24.6984 27.2614L24.5398 27.2129C24.3343 27.15 24.13 27.084 23.9273 27.0137L23.8433 26.9836C23.6616 26.9196 23.4824 26.8524 23.3034 26.7832L23.1519 26.7239C22.9562 26.6465 22.7613 26.5656 22.5691 26.4817L22.4527 26.4297C22.2874 26.3551 22.1238 26.2797 21.9609 26.2012L21.8187 26.1328C21.6909 26.0707 21.5648 26.0047 21.4382 25.9395L21.1847 25.8063C21.0304 25.7242 20.8792 25.6383 20.7288 25.5508L20.5749 25.4653C20.3745 25.3469 20.1769 25.225 19.9812 25.1012L19.821 24.9946C19.6792 24.9032 19.5378 24.8098 19.3988 24.7137L19.2624 24.618C19.1281 24.5235 18.9949 24.427 18.8632 24.3297L18.6863 24.1957C18.5652 24.1032 18.4448 24.0098 18.3261 23.9141L18.1656 23.7852C18.014 23.661 17.8644 23.5352 17.7167 23.4067L17.6675 23.3657C17.5077 23.2254 17.3507 23.0813 17.1956 22.9367L17.0628 22.8086C16.948 22.6996 16.8347 22.5895 16.7238 22.4762L16.5909 22.3434C16.4495 22.1989 16.3109 22.0524 16.1749 21.9035L16.1542 21.8813C16.0105 21.7242 15.8699 21.5637 15.7324 21.4012L15.6218 21.2699C15.5191 21.1465 15.4175 21.0207 15.3183 20.8946L15.207 20.7559C15.087 20.6008 14.9706 20.4461 14.8562 20.2891C11.6929 15.9739 10.5562 10.0223 13.0847 5.13479L10.8429 7.97698ZM19.757 4.49963C17.6804 7.48792 17.7929 11.4891 19.4132 14.6492C19.6847 15.1789 19.9902 15.6934 20.3316 16.1824C20.6425 16.6289 20.9878 17.1594 21.4007 17.5176C21.5503 17.6824 21.707 17.8434 21.8667 18.0012L21.9894 18.1227C22.1445 18.2731 22.3023 18.4211 22.4652 18.5649L22.4847 18.5817L22.4894 18.5864C22.6699 18.7446 22.8562 18.8965 23.0452 19.0465L23.1714 19.1449C23.3613 19.2903 23.5546 19.4332 23.7531 19.5696L23.7699 19.5824L24.0355 19.7571L24.1613 19.8403C24.3031 19.9313 24.4464 20.0196 24.5925 20.1043L24.6534 20.1403C24.7792 20.2125 24.9066 20.2836 25.0343 20.3531L25.1698 20.4235L25.4363 20.5617L25.4765 20.5801C25.6597 20.6699 25.8441 20.7571 26.0327 20.8391L26.1554 20.8899C26.3062 20.9535 26.4581 21.016 26.6113 21.0746L26.8066 21.1465C26.9456 21.1981 27.0847 21.2453 27.2253 21.2922L27.4144 21.3528C27.614 21.4145 27.8116 21.493 28.0195 21.5278C38.7421 23.3039 41.2175 15.0481 41.2175 15.0481C38.9863 18.2621 34.6648 19.7953 30.0534 18.5985C29.8488 18.5446 29.6464 18.486 29.446 18.4231L29.2636 18.3641C29.121 18.3184 28.9792 18.2692 28.839 18.218L28.6472 18.1465C28.4933 18.0871 28.3409 18.0258 28.1898 17.9617L28.0667 17.9098C27.8773 17.8274 27.6909 17.7403 27.5073 17.6496L27.2269 17.5071L27.0652 17.4239C26.9456 17.359 26.8269 17.2918 26.7101 17.2231L26.6253 17.175C26.48 17.0903 26.337 17.0032 26.1956 16.9125L26.0659 16.8262L25.7878 16.6418C25.5902 16.5055 25.3976 16.3629 25.2081 16.218L25.0777 16.1149C23.0593 14.5215 21.4593 12.3434 20.6988 9.87385C19.9015 7.31252 20.0734 4.43752 21.4546 2.10393L19.757 4.49963ZM27.2542 1.90159C26.03 3.70315 25.9097 5.94104 26.7593 7.93088C27.655 10.043 29.4906 11.6996 31.6331 12.4856L31.8995 12.5774L32.0167 12.6149C32.1429 12.6547 32.2683 12.7008 32.3988 12.725C38.3195 13.8692 39.9253 9.68713 40.3527 9.07112C38.946 11.0965 36.582 11.5828 33.6812 10.8785C33.4523 10.8231 33.2003 10.7403 32.9796 10.6617C32.6964 10.5606 32.4175 10.4457 32.146 10.3156C31.6312 10.068 31.1402 9.76799 30.6847 9.42424C28.089 7.45471 26.4769 3.69807 28.1706 0.638306" fill="#0868AC"/>
<path d="M25.9215 37.6152H24.2707C24.1793 37.6152 24.0883 37.6887 24.0687 37.7781L23.4828 40.4891L22.8968 43.2C22.8777 43.2895 22.7867 43.3629 22.6953 43.3629H21.5269C20.3711 43.3629 20.5047 42.5633 20.7414 41.468L20.7484 41.4348L20.7742 41.2965L20.7789 41.2707L20.8316 40.9895L20.8883 40.6883L20.9484 40.3816L21.2148 39.0801L21.4816 37.7785C21.5 37.6887 21.4398 37.6148 21.3484 37.6148H19.6543C19.5629 37.6148 19.4722 37.6883 19.4535 37.7781L19.089 39.5063L18.725 41.2348L18.7242 41.2371L18.6906 41.398C18.2711 43.3133 18.382 45.1402 20.6625 45.1977L20.7289 45.1988H24.3082C24.3996 45.1988 24.4906 45.1254 24.5097 45.0359L25.2816 41.4074L26.0535 37.7785C26.0726 37.6887 26.0133 37.6156 25.9215 37.6152ZM8.24333 37.5961H6.43083C6.33903 37.5961 6.24763 37.6695 6.22731 37.7586L6.05544 38.5172L5.88356 39.2758C5.86364 39.3652 5.92185 39.4383 6.01364 39.4383H7.8402C7.932 39.4383 8.02302 39.3648 8.04255 39.2754L8.20856 38.5172L8.37458 37.759C8.39372 37.6695 8.33513 37.5961 8.24333 37.5961ZM7.71755 39.957H5.8906C5.79919 39.957 5.70739 40.0305 5.68708 40.1195L5.43044 41.2563L5.17419 42.3926L5.10271 42.7184L4.85622 43.8785L4.61013 45.0391C4.59099 45.1285 4.55153 45.273 4.52224 45.3598C4.52224 45.3598 4.18083 46.3754 3.607 46.3637L3.53513 46.3621L3.03864 46.3531H3.03825C2.94685 46.352 2.85505 46.4234 2.83356 46.5121L2.64411 47.3086L2.45505 48.1047C2.43356 48.1938 2.49138 48.2672 2.58239 48.2688C2.90778 48.2727 3.63669 48.2809 4.07771 48.2809C5.51091 48.2809 6.26677 47.4867 6.75075 45.2016L7.31755 42.5789L7.84919 40.1191C7.86833 40.0305 7.80895 39.957 7.71755 39.957ZM41.357 39.3422L41.2812 39.0293L41.2066 38.709L41.1687 38.5473C41.0203 37.9703 40.5847 37.6379 39.6386 37.6379L38.166 37.6363L36.8097 37.6344H35.2836C35.1922 37.6344 35.1015 37.7078 35.0824 37.7973L35.0148 38.116L34.9351 38.4926L34.9129 38.5984L34.2257 41.8172L33.5734 44.8727C33.5539 44.9625 33.5476 45.0727 33.5586 45.1172C33.5695 45.1621 33.7457 45.1988 33.8371 45.1988H35.2136C35.3054 45.1988 35.4215 45.1824 35.4715 45.1621C35.5215 45.1418 35.5953 44.9617 35.6136 44.8723L35.8582 43.6617L36.1031 42.4508L36.1035 42.4488L36.1363 42.2875L36.4332 40.8969L36.6953 39.6688C36.7148 39.5793 36.805 39.5063 36.8965 39.5059L41.2281 39.5039C41.3199 39.5047 41.3777 39.4316 41.357 39.3422ZM46.9332 36.5141L46.5996 36.5152H45.2132C45.1215 36.5152 45.0039 36.5773 44.9527 36.6531L41.8867 41.1445C41.8351 41.2203 41.7761 41.2094 41.7558 41.1203L41.53 40.1309C41.5097 40.0414 41.4179 39.9684 41.3261 39.9684H39.3554C39.2636 39.9684 39.2093 40.0402 39.2343 40.1281L40.1175 43.2223C40.1425 43.3105 40.1445 43.4551 40.1218 43.5441L39.7371 45.0414C39.714 45.1305 39.7703 45.2027 39.8621 45.2027H41.8101C41.9015 45.2027 41.9953 45.1301 42.0179 45.0414L42.4031 43.5441C42.4258 43.4547 42.4894 43.3227 42.5449 43.2492L47.5222 36.6434C47.5777 36.5699 47.5476 36.5102 47.4562 36.5109L46.9332 36.5141ZM31.2746 40.3887V40.3871C31.2633 40.4863 31.1715 40.5594 31.0797 40.5594H28.5808C28.4941 40.5594 28.4504 40.5008 28.4632 40.4281L28.4656 40.4223L28.464 40.423L28.4652 40.4148L28.4765 40.3723C28.7152 39.7379 29.2011 39.3215 30.1148 39.3215C31.1437 39.3211 31.3445 39.8234 31.2746 40.3887ZM30.5414 37.5043C27.334 37.5043 26.5738 39.4512 26.1472 41.4164C25.7211 43.4195 25.7574 45.2918 29.0769 45.2918H29.4793L29.5793 45.2914H29.6027L30.0011 45.2902H30.0082C30.8847 45.2867 31.764 45.2801 32.1199 45.2773C32.2109 45.2758 32.3 45.2027 32.3187 45.1133L32.4531 44.4566L32.4793 44.3289L32.6394 43.5453C32.6578 43.4559 32.598 43.382 32.5062 43.382H29.5222C28.3351 43.382 27.9828 43.0668 28.1129 42.1395H32.8828L32.8824 42.1398L32.8855 42.1395C32.9613 42.1383 33.0316 42.0859 33.0593 42.0164L33.0707 41.975L33.0703 41.9754C33.7785 39.3039 33.5754 37.5047 30.5414 37.5043ZM15.3812 40.3785L15.3359 40.5383V40.5387L14.9758 41.8152L14.6156 43.0914C14.591 43.1801 14.4953 43.252 14.4035 43.252H12.4972C11.0511 43.252 10.6988 42.1207 11.0511 40.4527C11.4031 38.7465 12.0933 37.6859 13.5168 37.5785C15.4621 37.4316 15.8511 38.7996 15.3812 40.3785ZM16.689 43.1539C16.689 43.1539 17.5879 40.9711 17.7918 39.7109C18.0703 38.0238 17.2254 35.5762 13.9621 35.5762C10.7175 35.5762 9.30817 37.9125 8.77067 40.4527C8.23317 43.0113 8.93747 45.2547 12.1636 45.2363L14.709 45.227L17.0875 45.2184C17.1789 45.2176 17.2726 45.1449 17.2961 45.0566L17.7105 43.4762C17.7336 43.3871 17.6777 43.3145 17.5859 43.3137L17.1886 43.3113L16.7914 43.309C16.7136 43.3086 16.6691 43.2578 16.6785 43.191L16.689 43.1539ZM32.7515 41.6926C32.7515 41.7531 32.7027 41.8023 32.6422 41.8023C32.582 41.8023 32.5328 41.7531 32.5328 41.6926C32.5328 41.6324 32.5816 41.5836 32.6422 41.5836C32.7027 41.5836 32.7515 41.6324 32.7515 41.6926Z" fill="#131B28"/>
</svg>
