<svg width="50" height="50" viewBox="0 0 50 50" fill="none" xmlns="http://www.w3.org/2000/svg">
<path d="M24.9593 36.7298C35.5787 51.2063 45.9713 32.6892 45.9559 21.5536C45.9381 8.38812 32.5937 1.02988 24.9507 1.02988C12.6829 1.02969 1 11.1684 1 25.0404C1 40.4592 14.3922 48.9998 24.9507 48.9998C22.5614 48.6558 14.5988 46.9497 14.4919 28.6098C14.4197 16.2059 18.5382 11.2501 24.9334 13.4302C25.0767 13.4832 31.9875 16.2095 31.9875 25.1152C31.9875 33.9832 24.9593 36.7297 24.9593 36.7297V36.7298Z" fill="url(#paint0_linear)"/>
<path d="M24.9469 13.4201C17.9299 11.0016 9.33398 16.785 9.33398 28.3688C9.33398 47.2832 23.3502 49 25.0493 49C37.317 49 49 38.8611 49 24.9893C49 9.57038 35.6078 1.02974 25.0493 1.02974C27.9737 0.624738 40.8115 4.19474 40.8115 21.7406C40.8115 33.183 31.2257 39.4122 24.991 36.7508C24.8477 36.6977 17.9367 33.9715 17.9367 25.0658C17.9367 16.1976 24.9469 13.4201 24.9469 13.4201V13.4201Z" fill="url(#paint1_linear)"/>
<defs>
<linearGradient id="paint0_linear" x1="8.09899" y1="8.09921" x2="43.9546" y2="39.5902" gradientUnits="userSpaceOnUse">
<stop/>
<stop offset="1" stop-color="white"/>
</linearGradient>
<linearGradient id="paint1_linear" x1="41.914" y1="41.9138" x2="3.10548" y2="15.4118" gradientUnits="userSpaceOnUse">
<stop/>
<stop offset="1" stop-color="white"/>
</linearGradient>
</defs>
</svg>
