<svg width="50" height="50" viewBox="0 0 50 50" fill="none" xmlns="http://www.w3.org/2000/svg">
<g clip-path="url(#clip0)">
<path d="M28.9274 2H5.83871C2.61408 2 0 4.61591 0 7.84281V7.84684C0 11.0737 2.61408 13.6896 5.83871 13.6896H28.9274C32.1521 13.6896 34.7661 11.0737 34.7661 7.84684V7.84281C34.7661 4.61591 32.1521 2 28.9274 2Z" fill="#F45E43"/>
<path d="M44.0362 13.6856C47.3299 13.6856 49.9999 11.0697 49.9999 7.84281C49.9999 4.61591 47.3299 2 44.0362 2C40.7426 2 38.0725 4.61591 38.0725 7.84281C38.0725 11.0697 40.7426 13.6856 44.0362 13.6856Z" fill="#F45E43"/>
<path d="M21.2097 19.4558H44.0242C44.8151 19.4013 45.6087 19.5081 46.3571 19.7697C47.1055 20.0313 47.793 20.4423 48.3779 20.9777C48.9628 21.513 49.433 22.1617 49.76 22.8844C50.087 23.607 50.2639 24.3886 50.28 25.1817C50.2961 25.9748 50.1511 26.763 49.8538 27.4983C49.5565 28.2337 49.113 28.901 48.5504 29.4597C47.9877 30.0185 47.3174 30.4571 46.5803 30.7489C45.8432 31.0408 45.0545 31.1798 44.2621 31.1575H21.2097C20.4189 31.212 19.6252 31.1052 18.8768 30.8436C18.1285 30.582 17.441 30.1711 16.856 29.6357C16.2711 29.1003 15.8009 28.4516 15.474 27.7289C15.147 27.0063 14.9701 26.2247 14.954 25.4316C14.9378 24.6385 15.0828 23.8504 15.3801 23.115C15.6775 22.3796 16.1209 21.7124 16.6836 21.1536C17.2463 20.5948 17.9165 20.1562 18.6536 19.8644C19.3907 19.5726 20.1794 19.4335 20.9718 19.4558H21.2097Z" fill="#F45E43"/>
<path d="M5.95968 31.2705C9.25112 31.2705 11.9194 28.6004 11.9194 25.3067C11.9194 22.0129 9.25112 19.3428 5.95968 19.3428C2.66824 19.3428 0 22.0129 0 25.3067C0 28.6004 2.66824 31.2705 5.95968 31.2705Z" fill="#F63A4D"/>
<path d="M28.9274 36.3104H5.83871C2.61408 36.3104 0 38.9263 0 42.1532V42.1572C0 45.3841 2.61408 48 5.83871 48H28.9274C32.1521 48 34.7661 45.3841 34.7661 42.1572V42.1532C34.7661 38.9263 32.1521 36.3104 28.9274 36.3104Z" fill="#F45E43"/>
<path d="M44.0362 48C47.3299 48 49.9999 45.3823 49.9999 42.1532C49.9999 38.924 47.3299 36.3063 44.0362 36.3063C40.7426 36.3063 38.0725 38.924 38.0725 42.1532C38.0725 45.3823 40.7426 48 44.0362 48Z" fill="#F45E43"/>
</g>
<defs>
<clipPath id="clip0">
<rect width="50" height="50" fill="white"/>
</clipPath>
</defs>
</svg>
