<svg width="50" height="50" viewBox="0 0 50 50" fill="none" xmlns="http://www.w3.org/2000/svg">
<path d="M45.9187 31.0312C45.7271 30.1666 44.9458 29.1583 43.3666 29.1583C43.0416 29.1583 42.6875 29.2 42.2896 29.2843C41.5489 29.4354 40.9218 29.5083 40.3687 29.5364C44.6739 22.2 47.4687 12.0156 44.7021 8.48018C41.0521 3.8208 36.1458 3.12497 33.5458 3.12497H33.301C32.3323 3.14164 31.3271 3.25935 30.3177 3.47914L26.5833 4.28435C26.0651 4.21575 25.5434 4.17645 25.0208 4.16664H24.8125C23.1531 4.16664 21.6385 4.51664 20.2916 5.18018L18.9864 4.66664C17.1948 3.9583 14.5021 3.11664 11.8323 3.11664C11.6823 3.11664 11.5354 3.1208 11.3843 3.12914C8.75622 3.22289 6.50205 4.21976 4.8583 6.01039C2.80726 8.24372 1.87601 11.5156 2.08747 15.7312C2.0958 15.9468 4.6458 37.5 11.8729 37.5H11.9666C12.9073 37.476 13.8021 37.0968 14.6364 36.3771C15.275 36.8562 16.101 37.1375 16.8698 37.2521C17.3791 37.3739 18.2937 37.5406 19.3885 37.5406C20.7271 37.5406 21.9364 37.2677 22.9739 36.7718C22.9739 37.6916 22.9698 38.851 22.9573 40.3323V40.4135L22.9614 40.4906C23.0635 41.9677 23.3198 43.2979 23.701 44.3448C24.7968 47.3229 26.6885 48.9625 29.0239 48.9625C29.1218 48.9625 29.2239 48.9625 29.3208 48.9541C31.2458 48.8364 33.1958 47.7541 34.5333 46.0656C35.9864 44.2385 36.3198 42.3093 36.45 40.8323L36.4583 40.7385V36.401L36.5646 36.4093L37.0198 36.451L37.0646 36.4541H37.1062C37.2354 36.4625 37.3698 36.4666 37.5041 36.4666C39.075 36.4666 41.0073 36.0552 42.3135 35.4489C43.5635 34.8718 46.4156 33.2802 45.9187 31.0302V31.0312Z" fill="white"/>
<path d="M34.375 35.4166C34.375 35.2052 34.3875 35.026 34.3959 34.827L34.375 34.3749L34.4073 34.351C34.5625 31.5677 35.3313 30.4927 36.1531 29.8822C36.0386 29.7239 35.9052 29.5531 35.7834 29.3906C35.4375 28.9343 35.0021 28.3697 34.5417 27.6447L34.4563 27.4822C34.3875 27.3114 34.2167 27.0135 34.0011 26.6281C32.7719 24.3979 30.2042 19.7593 31.9625 16.8291C32.7313 15.5479 34.1709 14.8072 36.2542 14.6239C35.4 12.2072 32.2146 6.36765 24.9834 6.24994H24.9792C18.6844 6.14786 16.6177 11.8645 15.9469 15.2833C16.8698 14.8927 17.9323 14.652 18.9011 14.652H18.9459C21.3302 14.6687 22.9698 15.9427 23.4459 18.1479C23.7959 19.7624 23.9625 21.1749 23.9584 22.4729C23.95 25.3052 23.3761 26.7947 22.875 28.1083L22.7136 28.5322C22.5834 28.8822 22.449 29.2031 22.3177 29.5083C22.1886 29.8208 22.0698 30.0947 21.9886 30.3468C22.4938 30.4614 22.8886 30.6197 23.1604 30.7416L23.3156 30.8104C23.3646 30.8312 23.4136 30.8552 23.4584 30.8802C24.3406 31.4166 24.8938 32.2427 25.0125 33.2072C25.0729 33.7281 25.0646 37.2635 25.0406 40.3479C25.1344 41.6874 25.3584 42.8104 25.6594 43.6239C26.0865 44.7833 27.149 47.001 29.1948 46.8749C30.6229 46.7854 31.9948 45.9145 32.9063 44.7708C33.8823 43.5416 34.2407 42.1791 34.3792 40.6489V35.4166H34.375Z" fill="#0277BD"/>
<path d="M15.7427 30.1229C14.0624 28.3687 13.2447 26.0083 13.5541 23.8114C13.851 21.6916 13.6791 19.6208 13.5906 18.5021C13.5663 18.2352 13.5499 17.9678 13.5416 17.7C13.5416 17.6916 13.5458 17.6844 13.5458 17.676C13.5458 17.6718 13.5416 17.6719 13.5416 17.6677C13.6677 14.5187 14.8802 9.5531 18.2208 6.60414C16.5979 5.96143 13.9447 5.11873 11.4583 5.20831C7.56036 5.35102 3.78849 8.04477 4.16661 15.625C4.30932 18.4687 7.52391 35.5229 11.9177 35.4166C12.5447 35.4 13.1958 34.9979 13.8666 34.1916C14.7831 33.093 15.7236 32.0147 16.6874 30.9573C16.3506 30.705 16.0347 30.426 15.7427 30.1229Z" fill="#0277BD"/>
<path d="M38.5657 15.3437C38.5823 15.5073 38.5657 15.6416 38.5417 15.7708C38.574 16.7281 38.4729 17.6594 38.3667 18.5583C38.2797 19.2341 38.2199 19.9131 38.1875 20.5937C38.1667 21.2646 38.2604 21.9271 38.3625 22.6281C38.5948 24.2719 38.8386 26.1271 37.5646 28.2916C37.7969 28.601 38.0042 28.8854 38.1719 29.1625C42.9729 21.3781 44.9052 12.1208 43.0625 9.76143C40.2667 6.19268 36.3959 5.15935 33.3334 5.20831C32.3729 5.22498 31.5021 5.35414 30.7573 5.51352C36.0438 8.07602 38.399 13.5698 38.5657 15.3437Z" fill="#0277BD"/>
<path d="M42.7083 31.3229C39.9333 31.8969 38.5989 31.5916 37.9479 31.1927C37.8458 31.2656 37.7396 31.3312 37.6427 31.3927C37.2562 31.6239 36.6416 31.9989 36.4906 34.2896C36.5802 34.3062 36.6541 34.3135 36.7469 34.3344L37.2031 34.375C38.5781 34.4364 40.3771 34.0531 41.4344 33.5614C43.7094 32.5031 44.95 30.8635 42.7083 31.3229Z" fill="#0277BD"/>
<path d="M22.9406 33.4552C22.9 33.1458 22.7333 32.8937 22.4281 32.6948L22.3135 32.6458C21.9406 32.4791 21.5125 32.2916 20.8333 32.2916H20.8291C20.6948 32.3041 20.5645 32.3125 20.4343 32.3125C20.377 32.3125 20.325 32.3041 20.2718 32.3041C19.7791 32.6823 19.076 32.975 17.3385 33.3333C14.2343 34.1229 16.0677 35.0583 17.2562 35.201C18.4083 35.4895 21.1468 35.8395 22.9645 34.3583C22.9662 34.0571 22.9582 33.7559 22.9406 33.4552Z" fill="#0277BD"/>
<path d="M21.5417 19.2708C21.2396 19.5885 20.7604 19.8604 20.2271 19.775C19.3646 19.6375 18.7052 18.5958 18.7542 18.2052C18.799 17.8146 19.5354 17.6114 20.3938 17.7531C20.6959 17.8021 20.9667 17.8875 21.1959 17.9896C20.8625 17.2729 20.2594 16.8583 19.3396 16.7604C17.7084 16.5771 15.9792 17.4271 15.6334 17.9C15.6375 18.0177 15.6542 18.1635 15.6656 18.3354C15.7636 19.5312 15.9427 21.7573 15.6136 24.1052C15.3969 25.651 16.024 27.4052 17.2448 28.6823C18.0344 29.5052 18.9531 30.026 19.8646 30.1802C19.9792 29.6802 20.1865 29.1948 20.3979 28.6948C20.5156 28.4177 20.6417 28.125 20.7604 27.8073L20.9271 27.3646C21.3865 26.1594 21.8625 24.9146 21.875 22.4646C21.8792 21.5208 21.7604 20.4469 21.5417 19.2708Z" fill="#0277BD"/>
<path d="M36.3 22.925C36.1895 22.1646 36.0802 21.3781 36.1041 20.524C36.1291 19.751 36.2145 19.0229 36.3 18.3187C36.3604 17.7615 36.4135 17.2281 36.4416 16.7042C35.0989 16.8135 34.2083 17.2042 33.7854 17.8594C33.9762 17.7921 34.1739 17.7467 34.375 17.724C35.3073 17.6021 35.9823 17.8708 36.0593 18.3875C36.1208 18.7667 35.7989 19.1198 35.6562 19.2583C35.3677 19.5396 35.0052 19.7187 34.6354 19.7677C34.2161 19.8132 33.7944 19.706 33.4479 19.4656C33.5656 21.5208 35.0791 24.2719 35.8229 25.6187C35.9864 25.9073 36.1083 26.1396 36.2104 26.3344C36.6166 25.1708 36.4666 24.1094 36.3 22.925Z" fill="#0277BD"/>
</svg>
