<svg width="50" height="50" viewBox="0 0 50 50" fill="none" xmlns="http://www.w3.org/2000/svg">
<path d="M33.6328 18.5547C36.8359 21.875 37.0312 25.8984 37.0312 26.8359H13.1641C13.1641 26.0156 13.3594 21.5625 16.9922 18.125C20.3125 15 24.2188 14.8828 25.1172 14.8828C25.8984 14.8828 30.1953 15 33.6328 18.5547ZM49.1797 25C49.1797 38.3594 38.3594 49.1797 25 49.1797C11.6406 49.1797 0.78125 38.3594 0.78125 25C0.78125 11.6406 11.6406 0.78125 25 0.78125C38.3594 0.78125 49.1797 11.6406 49.1797 25ZM43.2422 31.3672C43.3203 30.4297 43.3594 29.0625 43.2422 27.4609V27.4219H39.7656V26.1719H43.125C42.8516 23.0469 42.1094 18.3984 38.7109 14.4531C38.6328 14.3359 38.5156 14.2578 38.4375 14.1406L35.7812 16.7969L34.8828 15.8984L37.5391 13.2422C33.2031 9.10156 27.6563 8.4375 25.7031 8.32031V11.9531H24.4531V8.28125C22.5391 8.35938 16.9922 8.98437 12.5391 13.3203L15.0781 15.8594L14.2188 16.7969L11.6797 14.2578C8.08594 18.2812 7.26562 23.0859 6.95312 26.1719H10.1953V27.4219H6.83594C6.83594 27.4609 6.83594 27.5 6.83594 27.5781C6.71875 29.1406 6.75781 30.4688 6.83594 31.3672H43.2422Z" fill="#E23237"/>
</svg>
