<svg width="50" height="50" viewBox="0 0 50 50" fill="none" xmlns="http://www.w3.org/2000/svg">
<path d="M11.5703 5.01953L25 3.60938L38.4297 5.01953L48.8281 18.8633L25 46.3906L1.17188 18.8633L11.5703 5.01953Z" fill="#FDB300"/>
<path d="M10.8242 18.8633L25 46.3906L1.17188 18.8633H10.8242Z" fill="#EA6C00"/>
<path d="M39.1758 18.8633L25 46.3906L48.8281 18.8633H39.1758Z" fill="#EA6C00"/>
<path d="M10.8242 18.8633H39.1758L25 46.3906L10.8242 18.8633Z" fill="#FDAD00"/>
<path d="M25 3.60938L11.5703 5.01953L10.8242 18.8633L25 3.60938Z" fill="#FDD231"/>
<path d="M25 3.60938L38.4297 5.01953L39.1758 18.8633L25 3.60938Z" fill="#FDD231"/>
<path d="M48.8281 18.8633L38.4297 5.01953L39.1758 18.8633H48.8281Z" fill="#FDAD00"/>
<path d="M25 3.60938L10.8242 18.8633H39.1758L25 3.60938Z" fill="#FEEEB7"/>
<path d="M1.17188 18.8633L11.5703 5.01953L10.8242 18.8633H1.17188Z" fill="#FDAD00"/>
</svg>
