<svg width="50" height="50" viewBox="0 0 50 50" fill="none" xmlns="http://www.w3.org/2000/svg">
<path d="M34.375 8.33335C34.375 6.03231 32.5093 4.16669 30.2083 4.16669C27.9073 4.16669 26.0416 6.03231 26.0416 8.33335C26.0416 9.6396 26.0416 18.4802 26.0416 19.7917C26.0416 22.0927 27.9073 23.9584 30.2083 23.9584C32.5093 23.9584 34.375 22.0927 34.375 19.7917C34.375 18.4802 34.375 9.6396 34.375 8.33335Z" fill="#33D375"/>
<path d="M44.7917 19.7917C44.7917 22.0927 42.9261 23.9583 40.625 23.9583C39.3802 23.9583 36.4584 23.9583 36.4584 23.9583C36.4584 23.9583 36.4584 20.8479 36.4584 19.7917C36.4584 17.4906 38.324 15.625 40.625 15.625C42.9261 15.625 44.7917 17.4906 44.7917 19.7917Z" fill="#33D375"/>
<path d="M8.33329 14.5833C6.03225 14.5833 4.16663 16.4489 4.16663 18.75C4.16663 21.051 6.03225 22.9166 8.33329 22.9166C9.63954 22.9166 18.4802 22.9166 19.7916 22.9166C22.0927 22.9166 23.9583 21.051 23.9583 18.75C23.9583 16.4489 22.0927 14.5833 19.7916 14.5833C18.4802 14.5833 9.63954 14.5833 8.33329 14.5833Z" fill="#40C4FF"/>
<path d="M19.7917 4.16669C22.0927 4.16669 23.9583 6.03231 23.9583 8.33335C23.9583 9.57815 23.9583 12.5 23.9583 12.5C23.9583 12.5 20.8479 12.5 19.7917 12.5C17.4906 12.5 15.625 10.6344 15.625 8.33335C15.625 6.03231 17.4906 4.16669 19.7917 4.16669Z" fill="#40C4FF"/>
<path d="M14.5834 40.6313C14.5834 42.9292 16.449 44.7917 18.75 44.7917C21.0511 44.7917 22.9167 42.9292 22.9167 40.6313C22.9167 39.3271 22.9167 30.499 22.9167 29.1896C22.9167 26.8917 21.0511 25.0292 18.75 25.0292C16.449 25.0292 14.5834 26.8917 14.5834 29.1896C14.5834 30.499 14.5834 39.3271 14.5834 40.6313Z" fill="#E91E63"/>
<path d="M4.16663 29.1896C4.16663 26.8917 6.03225 25.0292 8.33329 25.0292C9.57808 25.0292 12.5 25.0292 12.5 25.0292C12.5 25.0292 12.5 28.1344 12.5 29.1896C12.5 31.4875 10.6343 33.35 8.33329 33.35C6.03225 33.35 4.16663 31.4875 4.16663 29.1896Z" fill="#E91E63"/>
<path d="M40.625 34.375C42.926 34.375 44.7917 32.5094 44.7917 30.2084C44.7917 27.9073 42.926 26.0417 40.625 26.0417C39.3187 26.0417 30.4781 26.0417 29.1667 26.0417C26.8656 26.0417 25 27.9073 25 30.2084C25 32.5094 26.8656 34.375 29.1667 34.375C30.4771 34.375 39.3187 34.375 40.625 34.375Z" fill="#FFC107"/>
<path d="M29.1667 44.7916C26.8656 44.7916 25 42.926 25 40.625C25 39.3802 25 36.4583 25 36.4583C25 36.4583 28.1104 36.4583 29.1667 36.4583C31.4677 36.4583 33.3333 38.3239 33.3333 40.625C33.3333 42.926 31.4677 44.7916 29.1667 44.7916Z" fill="#FFC107"/>
</svg>
