<svg width="50" height="50" viewBox="0 0 50 50" fill="none" xmlns="http://www.w3.org/2000/svg">
<path d="M45.8164 38.3203L25.875 49.6094V40.8164L38.2812 33.9844L45.8164 38.3203ZM47.1836 37.0859V13.4961L39.8867 17.7148V32.875L47.1797 37.082L47.1836 37.0859ZM4.18359 38.3203L24.1055 49.6016V40.8164L11.6953 33.9844L4.18359 38.3203ZM2.81641 37.0859V13.4961L10.1133 17.7148V32.875L2.81641 37.0859ZM3.67187 11.9688L24.125 0.390625V8.89062L11.0195 16.0977L10.9141 16.1562L3.67187 11.9688ZM46.3203 11.9688L25.875 0.390625V8.89062L38.9805 16.0938L39.0859 16.1523L46.3281 11.9688H46.3203Z" fill="#8ED6FB"/>
<path d="M24.125 38.8164L11.8633 32.0703V18.7187L24.125 25.7812V38.8164ZM25.875 38.8164L38.1367 32.0781V18.7187L25.875 25.7812V38.8164ZM12.6953 17.1875L25 10.4141L37.3047 17.1875L25 24.2812L12.6953 17.1875Z" fill="#1C78C0"/>
</svg>
